<svg width="43" height="44" viewBox="0 0 43 44" fill="none" xmlns="http://www.w3.org/2000/svg">
<g id="ion:logo-github">
<rect y="0.5" width="43" height="43" rx="21.5" fill="#E5C300"/>
<path id="Vector" d="M21.5 3.1875C11.1111 3.1875 2.6875 11.8295 2.6875 22.4787C2.6875 31.0031 8.0793 38.2258 15.5539 40.7789C15.6588 40.8017 15.7658 40.8129 15.873 40.8125C16.5701 40.8125 16.8389 40.3002 16.8389 39.8551C16.8389 39.3932 16.8221 38.1838 16.8137 36.5713C16.1914 36.7172 15.5548 36.7932 14.9156 36.798C11.2959 36.798 10.4729 33.9846 10.4729 33.9846C9.61621 31.759 8.38164 31.1627 8.38164 31.1627C6.74395 30.0121 8.37324 29.9785 8.49922 29.9785H8.50762C10.3973 30.1465 11.3883 31.9773 11.3883 31.9773C12.3289 33.6234 13.5887 34.0854 14.7141 34.0854C15.4582 34.0705 16.1908 33.8988 16.8641 33.5814C17.032 32.3385 17.5191 31.4902 18.0566 31.0031C13.8826 30.516 9.49023 28.8615 9.49023 21.4709C9.49023 19.3629 10.2209 17.6412 11.4219 16.2975C11.2287 15.8104 10.582 13.8451 11.6066 11.1912C11.7441 11.1583 11.8853 11.1442 12.0266 11.1492C12.7068 11.1492 14.2438 11.4096 16.7801 13.1732C19.8619 12.3109 23.1213 12.3109 26.2031 13.1732C28.7395 11.4096 30.2764 11.1492 30.9566 11.1492C31.0979 11.1442 31.2391 11.1583 31.3766 11.1912C32.4012 13.8451 31.7545 15.8104 31.5613 16.2975C32.7623 17.6496 33.493 19.3713 33.493 21.4709C33.493 28.8783 29.0922 30.5076 24.9014 30.9863C25.5732 31.5826 26.1779 32.7584 26.1779 34.5557C26.1779 37.134 26.1527 39.2168 26.1527 39.8467C26.1527 40.3002 26.4131 40.8125 27.1102 40.8125C27.223 40.813 27.3356 40.8017 27.4461 40.7789C34.9291 38.2258 40.3125 30.9947 40.3125 22.4787C40.3125 11.8295 31.8889 3.1875 21.5 3.1875Z" fill="black"/>
</g>
</svg>
