<svg width="42" height="42" viewBox="0 0 42 42" fill="none" xmlns="http://www.w3.org/2000/svg">
<g id="tdesign:logo-instagram-filled">
<rect width="42" height="42" rx="12" fill="#E6C300"/>
<path id="Vector" d="M14 21C14 19.1435 14.7375 17.363 16.0503 16.0503C17.363 14.7375 19.1435 14 21 14C22.8565 14 24.637 14.7375 25.9497 16.0503C27.2625 17.363 28 19.1435 28 21C28 22.8565 27.2625 24.637 25.9497 25.9497C24.637 27.2625 22.8565 28 21 28C19.1435 28 17.363 27.2625 16.0503 25.9497C14.7375 24.637 14 22.8565 14 21Z" fill="black"/>
<path id="Vector_2" d="M21.0875 1.75C24.2847 1.75 26.803 1.75 28.8225 1.93375C30.884 2.11925 32.5955 2.50775 34.125 3.3915C35.9871 4.46662 37.5334 6.01292 38.6085 7.875C39.4923 9.4045 39.8808 11.116 40.0662 13.1775C40.25 15.197 40.25 17.7153 40.25 20.9125V21.0875C40.25 24.2847 40.25 26.803 40.0662 28.8225C39.8808 30.884 39.4923 32.5955 38.6085 34.125C37.5334 35.9871 35.9871 37.5334 34.125 38.6085C32.5955 39.4923 30.884 39.8808 28.8225 40.0662C26.803 40.25 24.2847 40.25 21.0875 40.25H20.9125C17.7153 40.25 15.197 40.25 13.1775 40.0662C11.116 39.8808 9.4045 39.4923 7.875 38.6085C6.01292 37.5334 4.46662 35.9871 3.3915 34.125C2.50775 32.5955 2.11925 30.884 1.93375 28.8225C1.75 26.803 1.75 24.2847 1.75 21.0875V20.9125C1.75 17.7153 1.75 15.197 1.93375 13.1775C2.11925 11.116 2.50775 9.4045 3.3915 7.875C4.46662 6.01292 6.01292 4.46662 7.875 3.3915C9.4045 2.50775 11.116 2.11925 13.1775 1.93375C15.197 1.75 17.7153 1.75 20.9125 1.75H21.0875ZM31.9375 8.3125C31.4734 8.3125 31.0282 8.49687 30.7001 8.82506C30.3719 9.15325 30.1875 9.59837 30.1875 10.0625V10.0695C30.1875 10.5336 30.3719 10.9787 30.7001 11.3069C31.0282 11.6351 31.4734 11.8195 31.9375 11.8195H31.9445C32.4086 11.8195 32.8537 11.6351 33.1819 11.3069C33.5101 10.9787 33.6945 10.5336 33.6945 10.0695V10.0625C33.6945 9.59837 33.5101 9.15325 33.1819 8.82506C32.8537 8.49687 32.4086 8.3125 31.9445 8.3125H31.9375ZM21 10.5C18.2152 10.5 15.5445 11.6062 13.5754 13.5754C11.6062 15.5445 10.5 18.2152 10.5 21C10.5 23.7848 11.6062 26.4555 13.5754 28.4246C15.5445 30.3938 18.2152 31.5 21 31.5C23.7848 31.5 26.4555 30.3938 28.4246 28.4246C30.3938 26.4555 31.5 23.7848 31.5 21C31.5 18.2152 30.3938 15.5445 28.4246 13.5754C26.4555 11.6062 23.7848 10.5 21 10.5Z" fill="black"/>
</g>
</svg>
