<svg width="43" height="44" viewBox="0 0 43 44" fill="none" xmlns="http://www.w3.org/2000/svg">
<g id="ion:logo-linkedin">
<rect y="0.5" width="43" height="43" rx="6" fill="#E5C300"/>
<path id="Vector" d="M37.3033 3.1875H5.90242C4.18662 3.1875 2.6875 4.42207 2.6875 6.11771V37.5883C2.6875 39.2932 4.18662 40.8125 5.90242 40.8125H37.2941C39.0191 40.8125 40.3125 39.2831 40.3125 37.5883V6.11771C40.3226 4.42207 39.0191 3.1875 37.3033 3.1875ZM14.3504 34.5498H8.96029V17.7907H14.3504V34.5498ZM11.8418 15.2426H11.8032C10.0781 15.2426 8.96113 13.9585 8.96113 12.351C8.96113 10.7142 10.1075 9.46029 11.8712 9.46029C13.6349 9.46029 14.7141 10.7049 14.7527 12.351C14.7519 13.9585 13.6349 15.2426 11.8418 15.2426ZM34.0498 34.5498H28.6597V25.3863C28.6597 23.1909 27.8753 21.6909 25.9251 21.6909C24.4353 21.6909 23.5534 22.6988 23.1612 23.6805C23.0142 24.0333 22.9748 24.5137 22.9748 25.0041V34.5498H17.5847V17.7907H22.9748V20.1229C23.7592 19.006 24.9845 17.3985 27.8358 17.3985C31.374 17.3985 34.0506 19.7307 34.0506 24.7589L34.0498 34.5498Z" fill="black"/>
</g>
</svg>
