<svg width="394" height="119" viewBox="0 0 394 119" fill="none" xmlns="http://www.w3.org/2000/svg">
<path d="M57 17.3495V50.5422C57 53.1822 54.855 55.6569 52.215 55.9869L51.3075 56.0972C45.3125 56.8947 36.0725 59.9469 30.7925 62.8619C30.0775 63.2744 28.895 63.2744 28.1525 62.8619L28.0425 62.8072C22.7624 59.9197 13.5501 56.8947 7.58258 56.0972L6.78497 55.9869C4.14497 55.6569 2 53.1822 2 50.5422V17.322C2 14.0495 4.66742 11.5745 7.93992 11.8495C13.7149 12.317 22.4599 15.2321 27.355 18.2846L28.0425 18.697C28.84 19.192 30.16 19.192 30.9575 18.697L31.425 18.3945C33.1575 17.322 35.3575 16.2495 37.75 15.287V26.507L43.25 22.8495L48.75 26.507V12.1521C49.4925 12.0146 50.2075 11.932 50.8675 11.877H51.0325C54.305 11.602 57 14.0495 57 17.3495Z" stroke="white" stroke-width="4" stroke-linecap="round" stroke-linejoin="round"/>
<path d="M29.5 19.6047V60.8548" stroke="white" stroke-width="4" stroke-linecap="round" stroke-linejoin="round"/>
<path d="M48.75 12.1523V26.5073L43.25 22.8497L37.75 26.5073V15.2872C41.3525 13.8572 45.3675 12.7023 48.75 12.1523Z" stroke="white" stroke-width="4" stroke-linecap="round" stroke-linejoin="round"/>
<path d="M105.97 62.91C105.643 62.5833 105.27 62.35 104.85 62.21C104.477 62.07 103.963 62 103.31 62H76.57L75.8 59.97L77.2 59.62C78.74 59.1533 79.7667 58.57 80.28 57.87C80.7933 57.1233 81.05 55.84 81.05 54.02V29.17C81.05 26.65 80.84 24.62 80.42 23.08C80 21.54 79.2767 20.07 78.25 18.67L77.41 17.48L78.25 16.5H97.64C101.327 16.5 103.707 16.0567 104.78 15.17L106.04 14.33L106.95 15.17V26.44L104.78 27.21L104.43 25.67C103.87 23.3833 103.147 21.8667 102.26 21.12C101.373 20.3733 99.8333 20 97.64 20H91.41C89.7767 20 88.68 20.3267 88.12 20.98C87.6067 21.6333 87.35 22.94 87.35 24.9V37.08H95.4C96.4733 37.08 97.3833 36.87 98.13 36.45C98.8767 36.03 99.6467 35.2833 100.44 34.21L100.93 33.51L102.19 34.21V45.06L100.09 45.83L99.67 44.22C99.2033 42.7733 98.5033 41.8167 97.57 41.35C96.6367 40.8833 95.0033 40.65 92.67 40.65H87.35V53.6C87.35 54.9533 87.4433 55.98 87.63 56.68C87.8633 57.3333 88.26 57.7767 88.82 58.01C89.38 58.2433 90.2433 58.36 91.41 58.36H98.2C99.74 58.36 100.93 58.22 101.77 57.94C102.61 57.6133 103.263 57.0533 103.73 56.26C104.243 55.4667 104.71 54.3 105.13 52.76L105.55 51.36L107.65 51.99V62.91L106.46 63.54L105.97 62.91ZM143.965 62.91C142.238 62.91 141.001 62.3967 140.255 61.37C139.508 60.2967 139.135 58.57 139.135 56.19V41.07C139.135 38.9233 138.668 37.3133 137.735 36.24C136.801 35.12 135.425 34.56 133.605 34.56C131.785 34.56 130.175 35.2833 128.775 36.73C127.421 38.1767 126.371 40.2067 125.625 42.82C124.878 45.4333 124.505 48.4433 124.505 51.85C124.505 53.81 124.645 55.3967 124.925 56.61C125.251 57.8233 125.788 58.9667 126.535 60.04L127.305 61.02L126.535 62H115.405L114.775 60.04L115.965 59.69C117.085 59.5033 117.808 59.0833 118.135 58.43C118.508 57.73 118.695 56.5633 118.695 54.93V37.15C118.695 36.6367 118.601 36.2867 118.415 36.1C118.228 35.8667 117.901 35.75 117.435 35.75H114.705L114.075 34.07C115.288 32.95 116.688 32.04 118.275 31.34C119.861 30.64 121.261 30.29 122.475 30.29C123.081 30.29 123.571 30.4767 123.945 30.85C124.318 31.2233 124.505 31.69 124.505 32.25V39.18C125.578 36.4267 127.211 34.1633 129.405 32.39C131.598 30.6167 133.908 29.73 136.335 29.73C139.275 29.73 141.421 30.64 142.775 32.46C144.175 34.28 144.875 37.15 144.875 41.07V56.4C144.875 57.8467 145.505 58.57 146.765 58.57C147.791 58.57 148.841 58.1267 149.915 57.24L151.105 58.85C150.031 60.0633 148.841 61.0433 147.535 61.79C146.228 62.5367 145.038 62.91 143.965 62.91ZM170.497 62.91C167.557 62.91 164.92 62.1867 162.587 60.74C160.254 59.2933 158.41 57.31 157.057 54.79C155.75 52.27 155.097 49.4467 155.097 46.32C155.097 42.96 155.727 40.0433 156.987 37.57C158.247 35.05 160.044 33.1133 162.377 31.76C164.71 30.4067 167.417 29.73 170.497 29.73C173.764 29.73 176.424 30.5233 178.477 32.11C180.577 33.65 181.627 35.6567 181.627 38.13C181.627 39.95 181.044 41.4433 179.877 42.61C178.71 43.73 177.217 44.29 175.397 44.29C174.977 44.29 174.674 44.2433 174.487 44.15C174.3 44.0567 174.207 43.8933 174.207 43.66C174.207 43.52 174.347 43.2167 174.627 42.75C174.954 42.2833 175.234 41.7233 175.467 41.07C175.7 40.37 175.817 39.4833 175.817 38.41C175.817 36.73 175.257 35.4233 174.137 34.49C173.064 33.51 171.617 33.02 169.797 33.02C167.37 33.02 165.41 34.21 163.917 36.59C162.47 38.9233 161.747 42.0267 161.747 45.9C161.747 49.82 162.61 52.9233 164.337 55.21C166.11 57.4967 168.49 58.64 171.477 58.64C173.017 58.64 174.464 58.3833 175.817 57.87C177.17 57.3567 178.524 56.54 179.877 55.42C179.97 55.3267 180.157 55.28 180.437 55.28C180.81 55.28 181.16 55.49 181.487 55.91C181.86 56.2833 182.047 56.68 182.047 57.1C182.047 57.4267 182 57.59 181.907 57.59C180.414 59.3167 178.664 60.6467 176.657 61.58C174.697 62.4667 172.644 62.91 170.497 62.91ZM216.624 63.05C214.897 63.05 213.661 62.5133 212.914 61.44C212.167 60.3667 211.794 58.64 211.794 56.26V41.21C211.794 39.0167 211.351 37.36 210.464 36.24C209.624 35.12 208.247 34.56 206.334 34.56C204.514 34.56 202.904 35.2833 201.504 36.73C200.104 38.1767 199.007 40.2067 198.214 42.82C197.467 45.4333 197.094 48.4433 197.094 51.85C197.094 53.81 197.234 55.3967 197.514 56.61C197.841 57.8233 198.401 58.9667 199.194 60.04L199.964 61.02L199.194 62H188.064L187.294 60.04L188.694 59.69C189.767 59.5033 190.467 59.0833 190.794 58.43C191.167 57.73 191.354 56.5633 191.354 54.93V19.23C191.354 18.7167 191.261 18.3667 191.074 18.18C190.887 17.9467 190.561 17.83 190.094 17.83H187.224L186.734 16.22C187.947 15.1 189.324 14.19 190.864 13.49C192.451 12.7433 193.827 12.37 194.994 12.37C195.601 12.37 196.091 12.5567 196.464 12.93C196.884 13.3033 197.094 13.7933 197.094 14.4V39.18C198.167 36.4267 199.824 34.1633 202.064 32.39C204.304 30.6167 206.637 29.73 209.064 29.73C212.144 29.73 214.314 30.64 215.574 32.46C216.881 34.2333 217.534 37.15 217.534 41.21V56.54C217.534 57.9867 218.141 58.71 219.354 58.71C220.334 58.71 221.384 58.29 222.504 57.45L223.834 58.99C222.667 60.25 221.431 61.2533 220.124 62C218.864 62.7 217.697 63.05 216.624 63.05ZM234.623 24.41C233.923 24.41 233.106 23.92 232.173 22.94C231.24 21.96 230.773 21.0733 230.773 20.28C230.773 19.4867 231.216 18.6 232.103 17.62C233.036 16.64 233.876 16.15 234.623 16.15C235.416 16.15 236.28 16.64 237.213 17.62C238.146 18.6 238.613 19.4867 238.613 20.28C238.613 21.0733 238.146 21.96 237.213 22.94C236.28 23.92 235.416 24.41 234.623 24.41ZM236.723 62.91C234.996 62.91 233.736 62.3967 232.943 61.37C232.196 60.2967 231.823 58.57 231.823 56.19V36.59C231.823 36.03 231.73 35.6333 231.543 35.4C231.356 35.1667 231.03 35.05 230.563 35.05H227.693L227.203 33.51C228.416 32.39 229.793 31.48 231.333 30.78C232.92 30.08 234.296 29.73 235.463 29.73C236.07 29.73 236.56 29.9167 236.933 30.29C237.353 30.6167 237.563 31.06 237.563 31.62V56.4C237.563 57.8467 238.193 58.57 239.453 58.57C240.433 58.57 241.506 58.1267 242.673 57.24L243.863 58.85C242.696 60.0633 241.46 61.0433 240.153 61.79C238.893 62.5367 237.75 62.91 236.723 62.91ZM247.939 60.04L249.129 59.69C250.249 59.5033 250.972 59.0833 251.299 58.43C251.672 57.73 251.859 56.5633 251.859 54.93V37.15C251.859 36.6367 251.765 36.2867 251.579 36.1C251.392 35.8667 251.065 35.75 250.599 35.75H247.869L247.239 34.07C248.452 32.95 249.852 32.04 251.439 31.34C253.025 30.64 254.425 30.29 255.639 30.29C256.245 30.29 256.735 30.4767 257.109 30.85C257.482 31.2233 257.669 31.69 257.669 32.25V39.18H258.019C258.765 36.3333 259.885 34.0467 261.379 32.32C262.919 30.5933 264.575 29.73 266.349 29.73C268.122 29.73 269.569 30.3133 270.689 31.48C271.855 32.6 272.439 34.1633 272.439 36.17C272.439 37.7567 271.855 39.0867 270.689 40.16C269.522 41.2333 268.052 41.77 266.279 41.77C265.439 41.77 265.019 41.56 265.019 41.14C265.019 41 265.182 40.6733 265.509 40.16C265.835 39.6467 266.115 39.1333 266.349 38.62C266.582 38.1067 266.699 37.5 266.699 36.8C266.699 36.0067 266.512 35.4 266.139 34.98C265.765 34.5133 265.275 34.28 264.669 34.28C263.689 34.28 262.662 34.8867 261.589 36.1C260.515 37.3133 259.582 39.25 258.789 41.91C258.042 44.57 257.669 47.9533 257.669 52.06C257.669 53.9733 257.809 55.5367 258.089 56.75C258.415 57.9167 258.952 59.0133 259.699 60.04L260.469 61.02L259.699 62H248.569L247.939 60.04ZM286.753 62.91C284.699 62.91 282.786 62.3267 281.013 61.16C279.286 59.9467 277.886 58.1967 276.813 55.91C275.786 53.5767 275.273 50.7533 275.273 47.44C275.273 41.98 276.743 37.6633 279.683 34.49C282.669 31.3167 286.683 29.73 291.723 29.73C294.196 29.73 296.203 29.9867 297.743 30.5V19.23C297.743 18.7167 297.649 18.3667 297.463 18.18C297.276 17.9467 296.973 17.83 296.553 17.83H293.753L293.193 16.22C294.359 15.1 295.736 14.19 297.323 13.49C298.909 12.7433 300.286 12.37 301.453 12.37C302.059 12.37 302.549 12.5567 302.923 12.93C303.296 13.3033 303.483 13.7933 303.483 14.4V56.4C303.483 57.7067 304.159 58.36 305.513 58.36C306.539 58.36 307.589 57.9867 308.663 57.24L309.853 58.85C308.733 60.11 307.543 61.1133 306.283 61.86C305.023 62.56 303.879 62.91 302.853 62.91C301.079 62.91 299.796 62.3967 299.003 61.37C298.209 60.2967 297.813 58.57 297.813 56.19C296.133 58.6633 294.383 60.4133 292.563 61.44C290.789 62.42 288.853 62.91 286.753 62.91ZM289.203 57.94C292.749 57.94 295.619 56.0267 297.813 52.2V35.05C295.993 33.8367 293.939 33.23 291.653 33.23C288.619 33.23 286.239 34.3733 284.513 36.66C282.833 38.9 281.993 42.0967 281.993 46.25C281.993 50.2633 282.669 53.2267 284.023 55.14C285.423 57.0067 287.149 57.94 289.203 57.94Z" fill="white"/>
<path d="M4.39702 112V90.1818H12.3871C13.9354 90.1818 15.2173 90.4375 16.233 90.9489C17.2486 91.4531 18.0085 92.1385 18.5128 93.005C19.017 93.8643 19.2692 94.8338 19.2692 95.9134C19.2692 96.8224 19.1023 97.5895 18.7685 98.2145C18.4347 98.8324 17.9872 99.3295 17.4261 99.706C16.8722 100.075 16.2614 100.345 15.5938 100.516V100.729C16.3182 100.764 17.0249 100.999 17.7138 101.432C18.4098 101.858 18.9851 102.465 19.4396 103.254C19.8942 104.042 20.1214 105.001 20.1214 106.13C20.1214 107.245 19.8587 108.246 19.3331 109.134C18.8146 110.015 18.0121 110.714 16.9254 111.233C15.8388 111.744 14.4503 112 12.7599 112H4.39702ZM7.68892 109.177H12.4403C14.017 109.177 15.1463 108.871 15.8281 108.261C16.5099 107.65 16.8509 106.886 16.8509 105.97C16.8509 105.281 16.6768 104.649 16.3288 104.074C15.9808 103.499 15.4837 103.04 14.8374 102.7C14.1982 102.359 13.4382 102.188 12.5575 102.188H7.68892V109.177ZM7.68892 99.6207H12.0994C12.8381 99.6207 13.5021 99.4787 14.0916 99.1946C14.6882 98.9105 15.1605 98.5128 15.5085 98.0014C15.8636 97.483 16.0412 96.8722 16.0412 96.169C16.0412 95.267 15.7251 94.5107 15.093 93.8999C14.4609 93.2891 13.4915 92.9837 12.1847 92.9837H7.68892V99.6207ZM23.7702 112V95.6364H26.8491V98.2358H27.0195C27.3178 97.3551 27.8434 96.6626 28.5962 96.1584C29.3562 95.647 30.2156 95.3913 31.1744 95.3913C31.3732 95.3913 31.6076 95.3984 31.8775 95.4126C32.1545 95.4268 32.3711 95.4446 32.5273 95.4659V98.5128C32.3995 98.4773 32.1722 98.4382 31.8455 98.3956C31.5188 98.3459 31.1921 98.321 30.8654 98.321C30.1126 98.321 29.4414 98.4808 28.8519 98.8004C28.2695 99.1129 27.8079 99.5497 27.467 100.111C27.1261 100.665 26.9556 101.297 26.9556 102.007V112H23.7702ZM35.2839 112V95.6364H38.4693V112H35.2839ZM36.8926 93.1115C36.3386 93.1115 35.8627 92.9268 35.465 92.5575C35.0744 92.1811 34.8791 91.7337 34.8791 91.2152C34.8791 90.6896 35.0744 90.2422 35.465 89.8729C35.8627 89.4964 36.3386 89.3082 36.8926 89.3082C37.4466 89.3082 37.9189 89.4964 38.3095 89.8729C38.7072 90.2422 38.9061 90.6896 38.9061 91.2152C38.9061 91.7337 38.7072 92.1811 38.3095 92.5575C37.9189 92.9268 37.4466 93.1115 36.8926 93.1115ZM45.94 102.284V112H42.7546V95.6364H45.8121V98.2997H46.0146C46.391 97.4332 46.9805 96.7372 47.783 96.2116C48.5927 95.6861 49.6119 95.4233 50.8406 95.4233C51.9556 95.4233 52.9322 95.6577 53.7702 96.1264C54.6083 96.5881 55.2582 97.277 55.7198 98.1932C56.1815 99.1094 56.4123 100.242 56.4123 101.592V112H53.2269V101.975C53.2269 100.789 52.918 99.8622 52.3001 99.1946C51.6822 98.5199 50.8335 98.1825 49.7539 98.1825C49.0153 98.1825 48.3583 98.3423 47.783 98.6619C47.2148 98.9815 46.7638 99.4503 46.43 100.068C46.1033 100.679 45.94 101.418 45.94 102.284ZM67.5451 118.477C66.2454 118.477 65.1268 118.307 64.1893 117.966C63.2589 117.625 62.4989 117.174 61.9094 116.613C61.32 116.052 60.8796 115.438 60.5884 114.77L63.3263 113.641C63.5181 113.953 63.7738 114.283 64.0934 114.631C64.4201 114.987 64.8604 115.288 65.4144 115.537C65.9755 115.786 66.6964 115.91 67.5771 115.91C68.7844 115.91 69.7823 115.615 70.5707 115.026C71.359 114.443 71.7532 113.513 71.7532 112.234V109.017H71.5508C71.359 109.365 71.082 109.752 70.7198 110.178C70.3647 110.604 69.8746 110.974 69.2496 111.286C68.6246 111.599 67.8114 111.755 66.81 111.755C65.5174 111.755 64.3526 111.453 63.3157 110.849C62.2859 110.239 61.4691 109.34 60.8654 108.154C60.2688 106.961 59.9705 105.494 59.9705 103.754C59.9705 102.014 60.2653 100.523 60.8548 99.2798C61.4513 98.0369 62.2681 97.0852 63.305 96.4247C64.342 95.7571 65.5174 95.4233 66.8313 95.4233C67.8469 95.4233 68.6673 95.5938 69.2923 95.9347C69.9173 96.2685 70.4038 96.6591 70.7518 97.1065C71.1069 97.554 71.3803 97.9482 71.5721 98.2891H71.8065V95.6364H74.9279V112.362C74.9279 113.768 74.6012 114.923 73.9478 115.825C73.2944 116.727 72.4102 117.394 71.2951 117.827C70.1871 118.261 68.9371 118.477 67.5451 118.477ZM67.5131 109.113C68.4293 109.113 69.2035 108.9 69.8356 108.474C70.4748 108.04 70.9577 107.423 71.2844 106.62C71.6183 105.81 71.7852 104.841 71.7852 103.712C71.7852 102.611 71.6218 101.641 71.2951 100.803C70.9684 99.9652 70.489 99.3118 69.8569 98.843C69.2248 98.3672 68.4435 98.1293 67.5131 98.1293C66.5543 98.1293 65.7553 98.3778 65.1161 98.875C64.4769 99.3651 63.994 100.033 63.6673 100.878C63.3477 101.723 63.1879 102.668 63.1879 103.712C63.1879 104.784 63.3512 105.725 63.6779 106.535C64.0046 107.344 64.4876 107.977 65.1268 108.431C65.7731 108.886 66.5685 109.113 67.5131 109.113ZM90.3248 90.1818V112H87.1394V90.1818H90.3248ZM101.663 112.33C100.05 112.33 98.6619 111.986 97.4972 111.297C96.3395 110.601 95.4446 109.624 94.8125 108.367C94.1875 107.103 93.875 105.622 93.875 103.925C93.875 102.249 94.1875 100.771 94.8125 99.4929C95.4446 98.2145 96.3253 97.2166 97.4545 96.4993C98.5909 95.782 99.919 95.4233 101.439 95.4233C102.362 95.4233 103.257 95.576 104.124 95.8814C104.99 96.1868 105.768 96.6662 106.457 97.3196C107.146 97.973 107.689 98.8217 108.087 99.8658C108.484 100.903 108.683 102.163 108.683 103.648V104.777H95.6754V102.391H105.562C105.562 101.553 105.391 100.81 105.05 100.164C104.71 99.5107 104.23 98.9957 103.612 98.6193C103.001 98.2429 102.284 98.0547 101.46 98.0547C100.565 98.0547 99.7841 98.2749 99.1165 98.7152C98.456 99.1484 97.9446 99.7166 97.5824 100.42C97.2273 101.116 97.0497 101.872 97.0497 102.689V104.553C97.0497 105.647 97.2415 106.577 97.625 107.344C98.0156 108.112 98.5589 108.697 99.255 109.102C99.951 109.5 100.764 109.699 101.695 109.699C102.298 109.699 102.849 109.614 103.346 109.443C103.843 109.266 104.273 109.003 104.635 108.655C104.997 108.307 105.274 107.877 105.466 107.366L108.481 107.909C108.239 108.797 107.806 109.575 107.181 110.242C106.563 110.903 105.786 111.418 104.848 111.787C103.918 112.149 102.856 112.33 101.663 112.33ZM116.98 112.362C115.943 112.362 115.005 112.17 114.167 111.787C113.329 111.396 112.665 110.832 112.175 110.093C111.692 109.354 111.45 108.449 111.45 107.376C111.45 106.453 111.628 105.693 111.983 105.097C112.338 104.5 112.818 104.028 113.421 103.68C114.025 103.332 114.7 103.069 115.445 102.891C116.191 102.714 116.951 102.579 117.725 102.487C118.705 102.373 119.501 102.281 120.112 102.21C120.722 102.131 121.166 102.007 121.443 101.837C121.72 101.666 121.859 101.389 121.859 101.006V100.931C121.859 100.001 121.596 99.2798 121.07 98.7685C120.552 98.2571 119.778 98.0014 118.748 98.0014C117.676 98.0014 116.83 98.2393 116.213 98.7152C115.602 99.1839 115.179 99.706 114.945 100.281L111.951 99.5994C112.306 98.6051 112.825 97.8026 113.507 97.1918C114.195 96.5739 114.987 96.1264 115.882 95.8494C116.777 95.5653 117.718 95.4233 118.705 95.4233C119.359 95.4233 120.051 95.5014 120.783 95.6577C121.521 95.8068 122.21 96.0838 122.85 96.4886C123.496 96.8935 124.025 97.4723 124.437 98.2251C124.849 98.9709 125.055 99.9403 125.055 101.134V112H121.944V109.763H121.816C121.61 110.175 121.301 110.58 120.889 110.977C120.477 111.375 119.948 111.705 119.302 111.968C118.656 112.231 117.882 112.362 116.98 112.362ZM117.672 109.805C118.553 109.805 119.306 109.631 119.931 109.283C120.563 108.935 121.042 108.481 121.369 107.92C121.703 107.352 121.869 106.744 121.869 106.098V103.989C121.756 104.102 121.536 104.209 121.209 104.308C120.889 104.401 120.524 104.482 120.112 104.553C119.7 104.617 119.298 104.678 118.908 104.734C118.517 104.784 118.191 104.827 117.928 104.862C117.31 104.94 116.745 105.072 116.234 105.256C115.73 105.441 115.325 105.707 115.019 106.055C114.721 106.396 114.572 106.851 114.572 107.419C114.572 108.207 114.863 108.804 115.445 109.209C116.028 109.607 116.77 109.805 117.672 109.805ZM129.298 112V95.6364H132.376V98.2358H132.547C132.845 97.3551 133.371 96.6626 134.124 96.1584C134.884 95.647 135.743 95.3913 136.702 95.3913C136.901 95.3913 137.135 95.3984 137.405 95.4126C137.682 95.4268 137.898 95.4446 138.055 95.4659V98.5128C137.927 98.4773 137.7 98.4382 137.373 98.3956C137.046 98.3459 136.719 98.321 136.393 98.321C135.64 98.321 134.969 98.4808 134.379 98.8004C133.797 99.1129 133.335 99.5497 132.994 100.111C132.653 100.665 132.483 101.297 132.483 102.007V112H129.298ZM143.997 102.284V112H140.811V95.6364H143.869V98.2997H144.071C144.448 97.4332 145.037 96.7372 145.84 96.2116C146.649 95.6861 147.669 95.4233 148.897 95.4233C150.012 95.4233 150.989 95.6577 151.827 96.1264C152.665 96.5881 153.315 97.277 153.776 98.1932C154.238 99.1094 154.469 100.242 154.469 101.592V112H151.284V101.975C151.284 100.789 150.975 99.8622 150.357 99.1946C149.739 98.5199 148.89 98.1825 147.811 98.1825C147.072 98.1825 146.415 98.3423 145.84 98.6619C145.271 98.9815 144.82 99.4503 144.487 100.068C144.16 100.679 143.997 101.418 143.997 102.284ZM158.741 112V95.6364H161.926V112H158.741ZM160.35 93.1115C159.796 93.1115 159.32 92.9268 158.922 92.5575C158.531 92.1811 158.336 91.7337 158.336 91.2152C158.336 90.6896 158.531 90.2422 158.922 89.8729C159.32 89.4964 159.796 89.3082 160.35 89.3082C160.904 89.3082 161.376 89.4964 161.767 89.8729C162.164 90.2422 162.363 90.6896 162.363 91.2152C162.363 91.7337 162.164 92.1811 161.767 92.5575C161.376 92.9268 160.904 93.1115 160.35 93.1115ZM169.397 102.284V112H166.212V95.6364H169.269V98.2997H169.472C169.848 97.4332 170.438 96.7372 171.24 96.2116C172.05 95.6861 173.069 95.4233 174.298 95.4233C175.413 95.4233 176.389 95.6577 177.227 96.1264C178.065 96.5881 178.715 97.277 179.177 98.1932C179.638 99.1094 179.869 100.242 179.869 101.592V112H176.684V101.975C176.684 100.789 176.375 99.8622 175.757 99.1946C175.139 98.5199 174.29 98.1825 173.211 98.1825C172.472 98.1825 171.815 98.3423 171.24 98.6619C170.672 98.9815 170.221 99.4503 169.887 100.068C169.56 100.679 169.397 101.418 169.397 102.284ZM191.002 118.477C189.702 118.477 188.584 118.307 187.646 117.966C186.716 117.625 185.956 117.174 185.366 116.613C184.777 116.052 184.337 115.438 184.045 114.77L186.783 113.641C186.975 113.953 187.231 114.283 187.55 114.631C187.877 114.987 188.317 115.288 188.871 115.537C189.433 115.786 190.153 115.91 191.034 115.91C192.241 115.91 193.239 115.615 194.028 115.026C194.816 114.443 195.21 113.513 195.21 112.234V109.017H195.008C194.816 109.365 194.539 109.752 194.177 110.178C193.822 110.604 193.332 110.974 192.707 111.286C192.082 111.599 191.268 111.755 190.267 111.755C188.974 111.755 187.81 111.453 186.773 110.849C185.743 110.239 184.926 109.34 184.322 108.154C183.726 106.961 183.428 105.494 183.428 103.754C183.428 102.014 183.722 100.523 184.312 99.2798C184.908 98.0369 185.725 97.0852 186.762 96.4247C187.799 95.7571 188.974 95.4233 190.288 95.4233C191.304 95.4233 192.124 95.5938 192.749 95.9347C193.374 96.2685 193.861 96.6591 194.209 97.1065C194.564 97.554 194.837 97.9482 195.029 98.2891H195.263V95.6364H198.385V112.362C198.385 113.768 198.058 114.923 197.405 115.825C196.751 116.727 195.867 117.394 194.752 117.827C193.644 118.261 192.394 118.477 191.002 118.477ZM190.97 109.113C191.886 109.113 192.661 108.9 193.293 108.474C193.932 108.04 194.415 107.423 194.741 106.62C195.075 105.81 195.242 104.841 195.242 103.712C195.242 102.611 195.079 101.641 194.752 100.803C194.425 99.9652 193.946 99.3118 193.314 98.843C192.682 98.3672 191.901 98.1293 190.97 98.1293C190.011 98.1293 189.212 98.3778 188.573 98.875C187.934 99.3651 187.451 100.033 187.124 100.878C186.805 101.723 186.645 102.668 186.645 103.712C186.645 104.784 186.808 105.725 187.135 106.535C187.462 107.344 187.945 107.977 188.584 108.431C189.23 108.886 190.026 109.113 190.97 109.113ZM217.489 112.33C215.905 112.33 214.542 111.972 213.398 111.254C212.262 110.53 211.388 109.532 210.778 108.261C210.167 106.989 209.861 105.533 209.861 103.893C209.861 102.231 210.174 100.764 210.799 99.4929C211.424 98.2145 212.305 97.2166 213.441 96.4993C214.577 95.782 215.916 95.4233 217.457 95.4233C218.7 95.4233 219.808 95.6541 220.781 96.1158C221.754 96.5703 222.539 97.2095 223.135 98.0334C223.739 98.8572 224.098 99.8196 224.211 100.92H221.111C220.941 100.153 220.55 99.4929 219.939 98.9389C219.336 98.3849 218.526 98.108 217.51 98.108C216.623 98.108 215.845 98.3423 215.177 98.8111C214.517 99.2727 214.002 99.9332 213.633 100.793C213.263 101.645 213.079 102.653 213.079 103.818C213.079 105.011 213.26 106.041 213.622 106.908C213.984 107.774 214.496 108.445 215.156 108.921C215.824 109.397 216.608 109.635 217.51 109.635C218.114 109.635 218.661 109.525 219.151 109.305C219.648 109.077 220.064 108.754 220.398 108.335C220.738 107.916 220.976 107.412 221.111 106.822H224.211C224.098 107.881 223.753 108.825 223.178 109.656C222.603 110.487 221.832 111.141 220.866 111.616C219.907 112.092 218.782 112.33 217.489 112.33ZM230.803 90.1818V112H227.618V90.1818H230.803ZM241.981 112.33C240.447 112.33 239.108 111.979 237.965 111.276C236.822 110.572 235.934 109.589 235.302 108.325C234.67 107.06 234.354 105.583 234.354 103.893C234.354 102.195 234.67 100.711 235.302 99.4396C235.934 98.1683 236.822 97.1811 237.965 96.478C239.108 95.7749 240.447 95.4233 241.981 95.4233C243.515 95.4233 244.854 95.7749 245.998 96.478C247.141 97.1811 248.029 98.1683 248.661 99.4396C249.293 100.711 249.609 102.195 249.609 103.893C249.609 105.583 249.293 107.06 248.661 108.325C248.029 109.589 247.141 110.572 245.998 111.276C244.854 111.979 243.515 112.33 241.981 112.33ZM241.992 109.656C242.986 109.656 243.81 109.393 244.464 108.868C245.117 108.342 245.6 107.643 245.912 106.769C246.232 105.896 246.392 104.933 246.392 103.882C246.392 102.838 246.232 101.879 245.912 101.006C245.6 100.125 245.117 99.4183 244.464 98.8857C243.81 98.353 242.986 98.0866 241.992 98.0866C240.991 98.0866 240.16 98.353 239.499 98.8857C238.846 99.4183 238.359 100.125 238.04 101.006C237.727 101.879 237.571 102.838 237.571 103.882C237.571 104.933 237.727 105.896 238.04 106.769C238.359 107.643 238.846 108.342 239.499 108.868C240.16 109.393 240.991 109.656 241.992 109.656ZM265.427 99.6314L262.54 100.143C262.419 99.7734 262.227 99.4219 261.964 99.0881C261.709 98.7543 261.361 98.4808 260.92 98.2678C260.48 98.0547 259.93 97.9482 259.269 97.9482C258.367 97.9482 257.614 98.1506 257.011 98.5554C256.407 98.9531 256.105 99.468 256.105 100.1C256.105 100.647 256.308 101.087 256.712 101.421C257.117 101.755 257.771 102.028 258.673 102.241L261.272 102.838C262.778 103.186 263.9 103.722 264.638 104.447C265.377 105.171 265.746 106.112 265.746 107.27C265.746 108.25 265.462 109.124 264.894 109.891C264.333 110.651 263.548 111.247 262.54 111.68C261.538 112.114 260.377 112.33 259.056 112.33C257.224 112.33 255.729 111.94 254.571 111.158C253.413 110.37 252.703 109.251 252.44 107.803L255.519 107.334C255.711 108.136 256.105 108.744 256.702 109.156C257.298 109.56 258.076 109.763 259.035 109.763C260.079 109.763 260.913 109.546 261.538 109.113C262.163 108.673 262.476 108.136 262.476 107.504C262.476 106.993 262.284 106.563 261.901 106.215C261.524 105.867 260.945 105.604 260.164 105.427L257.394 104.82C255.867 104.472 254.738 103.918 254.006 103.158C253.282 102.398 252.92 101.435 252.92 100.271C252.92 99.3047 253.19 98.4595 253.729 97.7351C254.269 97.0107 255.015 96.446 255.967 96.0412C256.918 95.6293 258.009 95.4233 259.237 95.4233C261.006 95.4233 262.398 95.8068 263.413 96.5739C264.429 97.3338 265.1 98.353 265.427 99.6314ZM276.301 112.33C274.689 112.33 273.301 111.986 272.136 111.297C270.978 110.601 270.083 109.624 269.451 108.367C268.826 107.103 268.514 105.622 268.514 103.925C268.514 102.249 268.826 100.771 269.451 99.4929C270.083 98.2145 270.964 97.2166 272.093 96.4993C273.23 95.782 274.558 95.4233 276.078 95.4233C277.001 95.4233 277.896 95.576 278.762 95.8814C279.629 96.1868 280.406 96.6662 281.095 97.3196C281.784 97.973 282.328 98.8217 282.725 99.8658C283.123 100.903 283.322 102.163 283.322 103.648V104.777H270.314V102.391H280.2C280.2 101.553 280.03 100.81 279.689 100.164C279.348 99.5107 278.869 98.9957 278.251 98.6193C277.64 98.2429 276.923 98.0547 276.099 98.0547C275.204 98.0547 274.423 98.2749 273.755 98.7152C273.095 99.1484 272.583 99.7166 272.221 100.42C271.866 101.116 271.688 101.872 271.688 102.689V104.553C271.688 105.647 271.88 106.577 272.264 107.344C272.654 108.112 273.198 108.697 273.894 109.102C274.59 109.5 275.403 109.699 276.333 109.699C276.937 109.699 277.487 109.614 277.985 109.443C278.482 109.266 278.911 109.003 279.274 108.655C279.636 108.307 279.913 107.877 280.105 107.366L283.119 107.909C282.878 108.797 282.445 109.575 281.82 110.242C281.202 110.903 280.424 111.418 279.487 111.787C278.556 112.149 277.494 112.33 276.301 112.33ZM286.856 112V95.6364H289.935V98.2358H290.105C290.404 97.3551 290.929 96.6626 291.682 96.1584C292.442 95.647 293.301 95.3913 294.26 95.3913C294.459 95.3913 294.694 95.3984 294.963 95.4126C295.24 95.4268 295.457 95.4446 295.613 95.4659V98.5128C295.485 98.4773 295.258 98.4382 294.931 98.3956C294.605 98.3459 294.278 98.321 293.951 98.321C293.199 98.321 292.527 98.4808 291.938 98.8004C291.355 99.1129 290.894 99.5497 290.553 100.111C290.212 100.665 290.042 101.297 290.042 102.007V112H286.856ZM313.948 95.6364V98.1932H305.01V95.6364H313.948ZM307.407 91.7159H310.592V107.195C310.592 107.813 310.684 108.278 310.869 108.591C311.054 108.896 311.292 109.106 311.583 109.219C311.881 109.326 312.204 109.379 312.552 109.379C312.808 109.379 313.032 109.362 313.223 109.326C313.415 109.29 313.564 109.262 313.671 109.241L314.246 111.872C314.061 111.943 313.799 112.014 313.458 112.085C313.117 112.163 312.691 112.206 312.179 112.213C311.341 112.227 310.56 112.078 309.836 111.766C309.111 111.453 308.525 110.97 308.078 110.317C307.63 109.663 307.407 108.843 307.407 107.856V91.7159ZM324.188 112.33C322.654 112.33 321.316 111.979 320.172 111.276C319.029 110.572 318.141 109.589 317.509 108.325C316.877 107.06 316.561 105.583 316.561 103.893C316.561 102.195 316.877 100.711 317.509 99.4396C318.141 98.1683 319.029 97.1811 320.172 96.478C321.316 95.7749 322.654 95.4233 324.188 95.4233C325.722 95.4233 327.061 95.7749 328.205 96.478C329.348 97.1811 330.236 98.1683 330.868 99.4396C331.5 100.711 331.816 102.195 331.816 103.893C331.816 105.583 331.5 107.06 330.868 108.325C330.236 109.589 329.348 110.572 328.205 111.276C327.061 111.979 325.722 112.33 324.188 112.33ZM324.199 109.656C325.193 109.656 326.017 109.393 326.671 108.868C327.324 108.342 327.807 107.643 328.119 106.769C328.439 105.896 328.599 104.933 328.599 103.882C328.599 102.838 328.439 101.879 328.119 101.006C327.807 100.125 327.324 99.4183 326.671 98.8857C326.017 98.353 325.193 98.0866 324.199 98.0866C323.198 98.0866 322.367 98.353 321.706 98.8857C321.053 99.4183 320.566 100.125 320.247 101.006C319.934 101.879 319.778 102.838 319.778 103.882C319.778 104.933 319.934 105.896 320.247 106.769C320.566 107.643 321.053 108.342 321.706 108.868C322.367 109.393 323.198 109.656 324.199 109.656ZM345.325 118.136C344.849 118.136 344.416 118.097 344.025 118.019C343.634 117.948 343.343 117.87 343.151 117.785L343.919 115.175C344.501 115.331 345.019 115.398 345.474 115.377C345.928 115.356 346.33 115.185 346.678 114.866C347.033 114.546 347.345 114.024 347.615 113.3L348.009 112.213L342.022 95.6364H345.431L349.575 108.335H349.746L353.89 95.6364H357.31L350.566 114.184C350.254 115.036 349.856 115.757 349.373 116.347C348.89 116.943 348.315 117.391 347.647 117.689C346.98 117.987 346.205 118.136 345.325 118.136ZM366.64 112.33C365.105 112.33 363.767 111.979 362.623 111.276C361.48 110.572 360.592 109.589 359.96 108.325C359.328 107.06 359.012 105.583 359.012 103.893C359.012 102.195 359.328 100.711 359.96 99.4396C360.592 98.1683 361.48 97.1811 362.623 96.478C363.767 95.7749 365.105 95.4233 366.64 95.4233C368.174 95.4233 369.512 95.7749 370.656 96.478C371.799 97.1811 372.687 98.1683 373.319 99.4396C373.951 100.711 374.267 102.195 374.267 103.893C374.267 105.583 373.951 107.06 373.319 108.325C372.687 109.589 371.799 110.572 370.656 111.276C369.512 111.979 368.174 112.33 366.64 112.33ZM366.65 109.656C367.645 109.656 368.468 109.393 369.122 108.868C369.775 108.342 370.258 107.643 370.571 106.769C370.89 105.896 371.05 104.933 371.05 103.882C371.05 102.838 370.89 101.879 370.571 101.006C370.258 100.125 369.775 99.4183 369.122 98.8857C368.468 98.353 367.645 98.0866 366.65 98.0866C365.649 98.0866 364.818 98.353 364.157 98.8857C363.504 99.4183 363.017 100.125 362.698 101.006C362.385 101.879 362.229 102.838 362.229 103.882C362.229 104.933 362.385 105.896 362.698 106.769C363.017 107.643 363.504 108.342 364.157 108.868C364.818 109.393 365.649 109.656 366.65 109.656ZM388.189 105.214V95.6364H391.385V112H388.253V109.166H388.082C387.706 110.04 387.102 110.768 386.271 111.35C385.447 111.925 384.421 112.213 383.192 112.213C382.141 112.213 381.211 111.982 380.401 111.521C379.599 111.052 378.966 110.359 378.505 109.443C378.05 108.527 377.823 107.394 377.823 106.045V95.6364H381.008V105.661C381.008 106.776 381.317 107.664 381.935 108.325C382.553 108.985 383.356 109.315 384.343 109.315C384.939 109.315 385.532 109.166 386.122 108.868C386.719 108.57 387.212 108.119 387.603 107.515C388.001 106.911 388.196 106.144 388.189 105.214Z" fill="#E3E3E3"/>
</svg>
