<svg width="585" height="515" viewBox="0 0 585 515" fill="none" xmlns="http://www.w3.org/2000/svg">
<path fill-rule="evenodd" clip-rule="evenodd" d="M343.166 514.883C477.764 514.883 496.844 455.003 517.253 443.999C537.661 432.995 524.973 410.913 538.358 394.257C559.738 367.653 572.696 381.363 579.772 346.85C586.848 312.337 573.984 302.573 573.984 271.759C573.984 210.022 603.558 180.798 565.791 148.497C528.024 116.196 464.956 120.007 402.58 120.007C286.804 120.007 217.445 -38.7039 63.0273 8.91123C9.8122 25.3202 15.6936 47.6822 27.3866 126.708C32.4643 161.025 -5.87391 204.656 0.777895 243.654C12.9267 314.879 45.0123 305.217 105.55 353.306C115.706 361.374 130.519 361.29 141.591 369.564C160.154 383.436 161.347 405.006 196.05 419.555C252.007 443.015 247.26 514.883 343.166 514.883Z" fill="white"/>
<path d="M85.8533 363.031C104.647 363.031 119.883 348.704 119.883 331.031C119.883 313.358 104.647 299.031 85.8533 299.031C67.0591 299.031 51.8235 313.358 51.8235 331.031C51.8235 348.704 67.0591 363.031 85.8533 363.031Z" fill="white"/>
<path fill-rule="evenodd" clip-rule="evenodd" d="M72.5073 216.936C66.7063 202.448 71.7743 193.768 75.0223 182.436C77.7353 172.97 98.9543 157.595 108.719 173.627C111.592 178.344 110.439 182.802 116.718 186.947C131.918 196.982 123.626 176.163 124.191 170.901C124.467 168.333 122.298 162.413 123.105 159.936C123.953 157.336 128.469 153.643 128.469 148.254C128.469 142.865 119.283 140.79 116.718 139.466C93.9303 127.7 79.4383 108.049 86.6603 98.0753C96.7233 84.1803 136.158 106.043 148.008 108.049C148.161 108.075 150.277 97.0273 152.006 94.4983C155.464 89.4373 159.286 84.5243 163.846 80.4273C165.888 78.5923 168.656 77.4593 171.378 77.0923C179.521 75.9933 187.852 75.0923 196.009 76.0873C198.891 76.4393 216.056 56.5733 222.749 50.1653C274.099 1.00029 377.036 60.9123 320.926 142.324C310.613 157.288 297.426 162.046 295.722 167.335C291.939 179.082 315.755 177.537 325.843 178.792C343.077 180.935 351.572 189.788 340.873 204.963C334.208 214.416 295.108 213.934 277.981 207.098C271.624 204.561 263.768 193.467 257.76 202.567C253.62 208.837 237.479 222.14 220.165 229.665C212.35 233.062 203.448 231.015 196.779 234.048C187.392 238.317 159.679 256.244 148.008 256.24C136.253 256.236 121.042 242.09 119.283 241.162C116.6 239.748 95.8513 235.694 85.6003 219.876C82.5013 215.093 74.6313 222.239 72.5073 216.936Z" fill="white"/>
<path d="M272.089 136.502C274.08 136.502 275.694 134.911 275.694 132.948C275.694 130.986 274.08 129.395 272.089 129.395C270.098 129.395 268.484 130.986 268.484 132.948C268.484 134.911 270.098 136.502 272.089 136.502Z" fill="#FFB61D"/>
<path d="M245.696 129.031C247.629 129.031 249.196 127.464 249.196 125.531C249.196 123.598 247.629 122.031 245.696 122.031C243.763 122.031 242.196 123.598 242.196 125.531C242.196 127.464 243.763 129.031 245.696 129.031Z" fill="#FFB61D"/>
<path d="M500.696 170.031C526.93 170.031 548.196 148.765 548.196 122.531C548.196 96.2977 526.93 75.0312 500.696 75.0312C474.463 75.0312 453.196 96.2977 453.196 122.531C453.196 148.765 474.463 170.031 500.696 170.031Z" fill="white"/>
<path d="M352.171 509.973C428.4 509.973 490.196 457.156 490.196 392.002C490.196 326.849 428.4 274.031 352.171 274.031C275.942 274.031 214.146 326.849 214.146 392.002C214.146 457.156 275.942 509.973 352.171 509.973Z" fill="white"/>
<path fill-rule="evenodd" clip-rule="evenodd" d="M235.158 456.326L236.707 457.448C233.21 460.585 227.951 456.684 225.002 453.028C220.26 447.148 215.448 440.9 214.005 433.486C213.184 429.267 213.512 424.92 213.844 420.635L215.182 403.357C215.774 395.7 216.369 388.03 217.694 380.466C221.281 359.994 230.311 340.502 243.606 324.528L243.739 324.368C246.087 321.548 248.651 318.469 248.606 314.813C248.51 307.079 252.964 299.851 258.813 294.788C264.661 289.725 271.822 286.476 278.873 283.296C282.067 281.855 286.238 280.564 288.714 283.044C293.806 288.145 302.304 284.896 309.03 282.305C317.288 279.124 326.109 277.41 334.957 277.267C335.214 277.263 335.474 277.26 335.735 277.256C341.048 277.18 347.027 277.095 350.268 272.979C352.332 270.358 356.278 270.51 359.59 270.906L382.369 273.631C384.11 273.839 386.196 274.314 386.745 275.979C388.216 280.443 393.407 282.265 397.907 283.622C413.907 288.446 429.546 294.996 443.129 304.73C456.712 314.464 468.192 327.558 474.284 343.12C464.38 329.582 454.219 315.789 440.473 306.176C436.54 303.424 432.356 301.049 428.109 298.811C418.086 293.527 407.655 288.973 396.818 285.665C346.512 270.31 288.32 284.551 250.79 321.402C245.349 326.745 240.247 332.63 237.16 339.604L241.237 340.869C234.776 343.757 229.976 350.084 228.938 357.085C231.538 352.631 235.244 348.829 239.63 346.115C238.375 350.308 235.11 353.678 231.91 356.981C227.831 361.19 223.857 365.291 224.278 370.854C226.215 365.771 231.093 361.935 236.489 361.251C227.931 369.613 218.747 379.427 219.02 391.389C222.142 384.481 227.442 378.578 233.975 374.734L224.57 387.372C221.014 392.151 217.268 397.613 218.081 403.515C221.175 397.962 225.599 393.156 230.877 389.614C228.336 395.394 224.707 400.694 220.237 405.154C224.487 404.641 228.58 402.88 231.876 400.147C230.494 402.076 229.249 404.252 229.203 406.625C229.156 408.997 230.693 411.542 233.041 411.883C233.752 410.294 235.981 409.623 237.451 410.556C232.995 414.891 232.949 422.924 237.355 427.31C237.747 425.248 239.486 423.511 241.547 423.121C238.261 428.867 237.67 436.083 239.978 442.287C240.676 438.772 242.627 435.519 245.398 433.247C243.8 441.585 240.268 449.546 235.158 456.326ZM233.211 453.67C235.993 453.641 237.724 450.529 238.014 447.762C238.361 444.451 237.539 441.142 236.723 437.915L231.883 418.773C230.972 419.061 230.866 420.052 230.756 421.09C230.661 421.976 230.563 422.896 229.957 423.442C228.732 421.919 228.593 419.613 229.626 417.953C230.669 416.277 229.986 413.931 228.507 412.625C227.027 411.319 224.969 410.875 222.996 410.81C221.93 410.775 220.796 410.857 219.924 411.471C219.051 412.084 218.592 413.39 219.212 414.258C221.057 416.842 222.444 419.752 223.292 422.812C223.355 423.041 223.416 423.272 223.478 423.505C223.899 425.093 224.333 426.727 225.495 427.86C226.393 428.735 226.622 430.071 226.805 431.312L228.284 441.371C228.553 443.202 228.822 445.069 228.514 446.893C228.206 448.718 227.22 450.527 225.565 451.355L230.85 453.153C231.616 453.414 232.401 453.678 233.211 453.67ZM290.816 288.802C289.774 289.022 288.901 288.107 288.155 287.326L288.07 287.236C287.305 286.437 285.992 285.741 285.187 286.498C275.807 295.323 265.133 302.769 253.613 308.525C251.522 309.569 251.241 312.386 251.24 314.723C251.239 315.504 251.987 316.6 252.474 315.99C254.849 313.013 257.938 310.703 260.991 308.427C269.582 302.022 278.275 295.557 288.123 291.335C289.318 290.822 290.717 290.098 290.816 288.802ZM385.089 278.877C384.557 277.63 383.046 277.18 381.713 276.929C378.083 276.245 374.388 275.935 370.696 275.625C365.626 275.2 360.563 274.776 355.684 273.383C354.121 272.937 352.785 274.521 351.928 275.903C354.499 275.635 357.086 275.524 359.671 275.572C364.169 275.655 368.644 276.215 373.108 276.775C375.377 277.059 377.661 277.347 379.837 278.051C380.09 278.132 380.345 278.22 380.602 278.308C382.088 278.818 383.623 279.345 385.089 278.877ZM337.067 298.051C338.095 298.286 339.074 299.054 339.228 300.097C339.381 301.138 338.67 302.152 337.761 302.682C336.853 303.212 335.779 303.361 334.736 303.499L331.597 303.914C331.282 303.956 330.958 304.001 330.685 304.163C329.896 304.63 329.95 305.896 330.595 306.548C331.241 307.199 332.23 307.361 333.147 307.359C337.417 307.351 341.46 304.278 342.764 300.212C343.074 299.247 343.238 298.173 342.854 297.234C342.659 296.758 342.334 296.345 341.973 295.979C340.293 294.277 337.791 293.527 335.406 293.695C333.021 293.864 330.752 294.88 328.811 296.276C327.881 296.945 326.995 297.729 326.466 298.746C325.938 299.763 325.824 301.054 326.416 302.036C326.641 302.41 326.99 302.742 327.421 302.813C327.852 302.883 328.35 302.605 328.404 302.171C328.553 300.965 329.433 299.946 330.482 299.333C331.531 298.72 332.74 298.45 333.932 298.212C334.966 298.005 336.039 297.816 337.067 298.051ZM252.913 357.699C254.086 350.759 259.692 345.117 266.227 342.502C269.828 341.061 273.949 340.429 277.571 341.818C278.465 342.16 279.33 342.633 279.974 343.341C280.579 344.007 280.96 344.846 281.247 345.698C283.087 351.155 281.22 357.467 277.267 361.655C273.314 365.844 267.558 368.041 261.814 368.453C259.973 368.585 257.997 368.51 256.477 367.465C254.957 366.419 254.203 364.095 255.373 362.669C255.926 362.695 256.225 363.189 256.53 363.694C256.681 363.945 256.834 364.198 257.021 364.399C257.659 365.085 258.714 365.135 259.65 365.096C263.724 364.924 267.859 363.915 271.174 361.542C274.489 359.17 276.872 355.295 276.802 351.218C276.779 349.905 276.494 348.561 275.75 347.479C274.528 345.702 272.219 344.9 270.067 345.042C267.916 345.184 265.899 346.138 264.067 347.275C261.656 348.771 259.428 350.652 257.917 353.053C256.406 355.455 255.667 358.423 256.306 361.187C255.741 362.206 254.063 362.003 253.369 361.067C252.675 360.131 252.719 358.848 252.913 357.699ZM290.426 414.9C287.446 416.817 284.975 419.819 284.515 423.332C284.143 426.175 285.096 429.006 286.035 431.715C286.768 433.829 287.525 435.989 288.921 437.738C291.442 440.896 295.616 442.203 299.606 442.845C300.693 443.02 302.341 442.529 301.954 441.499C297.741 441.422 293.598 439.469 290.856 436.27C288.115 433.071 286.82 428.677 287.389 424.502C287.508 423.624 287.709 422.75 288.077 421.943C288.824 420.313 290.215 419.059 291.721 418.086C294.963 415.991 298.91 415.009 302.756 415.342C306.463 415.662 310.167 417.287 312.431 420.241C314.694 423.195 315.234 427.553 313.236 430.694C312.912 431.204 312.675 432.107 313.27 432.213C316.485 430.481 318.27 426.661 318.09 423.013C317.91 419.365 315.983 415.951 313.337 413.434C311.873 412.042 310.139 410.866 308.175 410.393C305.586 409.769 302.877 410.413 300.302 411.09C296.874 411.991 293.406 412.982 290.426 414.9ZM436.785 419.431C426.008 415.408 414.298 413.908 402.856 415.086C398.058 415.58 393.244 416.559 388.931 418.717C380.792 422.791 374.973 431.176 374.005 440.226C373.037 449.275 376.95 458.702 384.043 464.405C386.733 466.567 389.786 468.186 392.843 469.808C394.93 470.915 397.019 472.022 398.995 473.305C399.56 473.844 398.289 474.383 397.546 474.143C390.634 471.912 383.922 468.518 378.992 463.185C372.994 456.697 370.068 447.483 371.225 438.723C372.382 429.963 377.599 421.825 385.076 417.116C390.99 413.392 398.061 411.822 405.045 411.571C412.03 411.319 418.994 412.317 425.9 413.387C430.214 414.055 435.272 415.337 436.785 419.431ZM323.394 432.934C322.905 431.812 320.938 431.52 320.578 432.69C318.292 440.129 311.033 445.753 303.259 446.11C301.502 446.19 299.743 446.027 297.992 445.858C294.221 445.493 290.332 445.062 287.03 443.205C282.281 440.535 279.423 435.053 279.39 429.605C279.356 424.157 281.94 418.863 285.864 415.083C285.319 413.558 282.981 414.295 281.82 415.423C275.384 421.678 274.28 432.475 278.796 440.23C283.311 447.986 292.774 452.333 301.694 451.347C310.614 450.361 318.667 444.388 322.814 436.43C323.379 435.345 323.884 434.055 323.394 432.934ZM267.536 470.604C266.083 476.176 265.945 482.087 267.136 487.721C267.671 490.248 267.729 491.64 267.74 491.901C267.741 491.931 267.742 491.946 267.743 491.946C267.743 491.946 267.744 491.931 267.745 491.901C267.757 491.64 267.82 490.242 268.367 487.711C269.586 482.067 269.296 476.104 267.536 470.604ZM275.256 473.974C273.191 478.301 273.447 483.655 275.915 487.766C276.469 488.689 276.89 489.44 277.2 489.993V489.994C277.617 490.738 277.835 491.127 277.911 491.101C277.993 491.073 277.905 490.551 277.722 489.459C277.649 489.021 277.56 488.491 277.46 487.864L275.256 473.974ZM281.068 479.5C280.192 482.262 280.837 485.457 282.716 487.663C284.634 489.917 285.261 490.639 284.676 487.738C284.08 484.776 282.84 481.946 281.068 479.5ZM449.275 448.075C446.64 458.656 438.221 466.673 430.058 473.902C430.431 474.706 431.637 474.418 432.409 473.983C440.678 469.33 447.368 461.745 450.421 452.762C453.473 443.779 452.714 433.457 447.896 425.284C447.491 424.598 446.976 423.868 446.194 423.715C445.413 423.562 444.512 424.468 444.972 425.118C449.603 431.678 451.216 440.283 449.275 448.075ZM330.402 352.54C330.382 350.866 330.405 349.054 331.416 347.72C332.808 345.883 335.448 345.69 337.753 345.657C338.781 345.643 339.822 345.63 340.823 345.868C342.954 346.375 344.651 347.947 346.163 349.532C346.498 349.883 346.855 350.315 346.772 350.793C346.669 351.385 345.927 351.658 345.337 351.537C344.945 351.456 344.594 351.261 344.242 351.066C344.065 350.967 343.886 350.869 343.703 350.785C341.584 349.813 339.094 350.879 337.191 352.225C336.892 352.437 336.569 352.708 336.561 353.075C336.554 353.443 336.869 353.728 337.166 353.946C339.738 355.83 343.031 356.702 346.198 356.338C346.956 356.252 347.845 355.974 348.042 355.237C348.118 354.95 348.089 354.611 348.06 354.284C348.012 353.737 347.966 353.222 348.426 353.032C348.666 352.933 348.938 353.004 349.186 353.077C350.901 353.575 352.905 354.377 353.237 356.131C353.333 356.638 353.265 357.166 353.103 357.656C352.631 359.09 351.315 360.21 349.824 360.447C349.162 360.552 348.487 360.495 347.819 360.438C346.074 360.288 344.328 360.138 342.599 359.859C339.424 359.348 336.32 358.402 333.4 357.056C332.387 356.59 331.334 356.015 330.82 355.025C330.43 354.272 330.411 353.388 330.402 352.54ZM395.6 311.264C394.58 308.507 392.115 306.33 389.252 305.66C388.366 305.453 387.366 305.402 386.615 305.915C385.863 306.428 385.605 307.68 386.321 308.241C387.016 308.785 386.596 310.064 385.748 310.306C384.899 310.548 383.986 309.972 383.562 309.198C383.139 308.424 383.093 307.505 383.088 306.623C383.082 305.446 383.189 304.132 384.059 303.338C384.39 303.036 384.803 302.841 385.213 302.658C386.907 301.9 388.781 301.258 390.592 301.665C392.317 302.052 393.693 303.327 394.896 304.623C395.883 305.685 396.816 306.798 397.691 307.954C398.462 308.973 399.203 310.06 399.493 311.305C399.782 312.549 399.533 313.994 398.571 314.835C397.63 315.659 396.182 315.729 395.04 315.221C394.03 314.771 393.169 313.782 393.244 312.679C393.319 311.577 394.673 310.663 395.6 311.264ZM404.705 388.793C407.236 388.721 409.594 386.772 410.14 384.3C410.473 382.797 410.063 381.009 408.753 380.201C407.796 379.61 406.592 379.653 405.47 379.725C403.916 379.825 402.303 379.96 400.953 380.736C399.603 381.512 398.599 383.12 399.022 384.618C399.71 387.055 402.175 388.866 404.705 388.793ZM405.03 385.142C404.541 385.274 403.844 385.148 403.799 384.643C403.781 384.433 403.894 384.235 404.023 384.068C404.742 383.137 406.112 382.775 407.197 383.23C406.82 384.154 405.994 384.883 405.03 385.142ZM406.338 347.696C405.925 346.745 406.724 345.636 407.694 345.272C408.471 344.98 409.315 345.01 410.153 345.041C410.362 345.048 410.569 345.056 410.775 345.058C411.812 345.071 412.957 344.898 413.63 344.109C413.867 343.831 414.028 343.422 413.847 343.104C413.658 342.772 413.212 342.715 412.831 342.695C410.189 342.558 407.069 342.639 405.546 344.802C405.219 345.267 404.417 345.11 404.111 344.631C403.805 344.152 403.875 343.523 404.05 342.982C404.673 341.043 406.464 339.633 408.42 339.068C410.377 338.503 412.477 338.681 414.463 339.131C415.133 339.282 415.828 339.482 416.317 339.964C416.705 340.346 416.922 340.869 417.064 341.395C417.74 343.91 416.741 346.791 414.653 348.347C412.565 349.904 409.519 350.038 407.302 348.671C406.907 348.427 406.522 348.122 406.338 347.696ZM397.282 392.135C398.509 393.605 399.962 394.942 401.724 395.69C405.287 397.203 409.842 395.805 411.943 392.555C412.709 391.371 413.051 389.565 411.919 388.726C410.106 392.536 404.848 394.218 401.161 392.168C400.454 391.775 399.812 391.273 399.228 390.714C396.576 388.175 395.192 384.028 396.748 380.702C397.255 379.618 398.034 378.682 398.886 377.841C400.744 376.007 403.402 374.505 405.882 375.321C405.985 375.355 406.088 375.393 406.191 375.431C406.538 375.558 406.887 375.687 407.252 375.665C407.725 375.638 408.22 375.214 408.098 374.756C408.062 374.621 407.978 374.503 407.891 374.393C406.358 372.44 403.35 371.837 401.182 373.048C398.603 374.489 395.982 376.186 394.61 378.803C392.377 383.062 394.2 388.442 397.282 392.135ZM438.365 326.434C438.252 326.597 438.281 326.823 438.308 327.04C438.34 327.297 438.37 327.54 438.159 327.644C437.387 328.025 436.463 327.986 435.64 327.733C433.394 327.044 431.887 324.982 430.616 323.006C429.873 321.85 429.133 320.622 429.013 319.253C428.893 317.884 429.593 316.343 430.912 315.956C432.382 315.524 433.823 316.618 434.968 317.636C436.259 318.786 437.578 319.97 438.377 321.503C439.176 323.036 439.353 325.016 438.365 326.434ZM433.481 321.305C433.798 321.613 433.971 322.027 434.145 322.441C434.315 322.849 434.487 323.257 434.795 323.564C435.185 323.953 435.778 324.127 436.317 324.012C435.307 322.448 434.137 320.989 432.83 319.664C432.481 319.769 432.452 320.287 432.662 320.585C432.79 320.766 432.968 320.899 433.147 321.033C433.262 321.119 433.378 321.205 433.481 321.305ZM241.171 462.539C241.046 464.59 241.203 466.967 242.845 468.203C243.392 467.898 243.355 467.116 243.286 466.493C242.862 462.658 244.052 458.962 245.25 455.242C246.107 452.579 246.968 449.903 247.244 447.155C247.325 446.358 247.112 445.267 246.311 445.236C245.711 445.213 245.324 445.846 245.082 446.395C242.84 451.489 241.508 456.983 241.171 462.539ZM400.438 388.551C402.29 389.37 404.344 390.206 406.283 389.617C407.054 389.383 407.74 388.938 408.415 388.498C408.412 389.631 407.438 390.582 406.352 390.906C405.266 391.23 404.098 391.057 402.991 390.817C401.761 390.551 400.257 389.796 400.438 388.551ZM253.9 483.117C254.372 482.275 254.453 481.276 254.523 480.313L255.082 472.643C255.356 468.879 255.631 465.101 255.385 461.335C255.354 460.86 255.306 460.359 255.029 459.972C254.752 459.585 254.166 459.379 253.786 459.666C253.507 459.877 253.437 460.26 253.388 460.607C252.781 464.962 252.457 469.356 252.418 473.753C252.389 476.941 252.535 480.235 253.9 483.117ZM245.516 476.525C245.025 476.94 244.207 476.575 243.936 475.991C243.666 475.408 243.775 474.727 243.891 474.095C245.105 467.475 246.482 460.886 248.02 454.334C248.058 454.17 248.1 454 248.206 453.869C248.611 453.368 249.43 453.872 249.717 454.448C250.422 455.861 250.084 457.548 249.732 459.087L245.94 475.623C245.865 475.953 245.775 476.307 245.516 476.525ZM258.648 476.819C258.436 479.302 258.809 481.793 259.18 484.257C259.312 485.134 259.944 486.3 260.736 485.901L262.281 469.382C262.344 468.71 262.386 467.964 261.97 467.434C261.553 466.903 260.498 466.925 260.365 467.586L259.226 473.251C258.988 474.433 258.75 475.618 258.648 476.819ZM418.164 426.191C413.766 423.927 408.414 423.034 403.845 424.931C400.433 426.348 390.789 432.468 389.505 440.312C388.646 445.563 388.655 450.928 390.493 455.998L390.789 456.794C391.336 458.23 393.08 459.88 394.055 458.693C391.208 453.546 390.676 447.174 392.63 441.627C394.584 436.08 398.993 431.448 404.436 429.222C405.582 428.753 406.778 428.385 408.01 428.268C410.502 428.032 412.989 428.839 415.217 429.981C420.012 432.438 425.954 436.524 428.236 441.405C430.437 446.111 432.058 451.723 430.066 456.521C428.075 461.319 414.992 464.79 414.992 464.79L416.44 467.432C416.44 467.432 423.763 465.987 428.236 462.729C447.012 449.054 422.371 428.357 418.164 426.191Z" fill="#2218A7"/>
<path fill-rule="evenodd" clip-rule="evenodd" d="M86.2473 358.665C79.6063 359.377 72.5733 357.841 67.3883 353.631C63.7163 350.65 61.1363 346.502 59.3253 342.133C57.3593 337.388 56.2293 332.299 56.0023 327.169C55.9163 325.237 55.9623 323.27 56.5303 321.422C57.4643 318.38 59.7143 315.939 62.0103 313.737C66.8963 309.051 72.6393 304.775 79.3363 303.79C83.9003 303.119 88.5423 304.034 93.0093 305.184C96.5183 306.087 100.022 307.151 103.177 308.93C110.151 312.862 114.983 320.361 115.682 328.336C116.381 336.31 115.521 341.594 104.759 351.502C99.1673 355.153 92.8883 357.953 86.2473 358.665ZM97.9583 333.633C96.8813 333.971 95.8073 334.572 94.6953 334.377C92.4243 333.977 92.0173 330.861 92.5213 328.61C93.9653 322.167 98.4563 316.477 104.387 313.576C103.044 311.141 99.4783 310.962 96.9553 312.133C94.4333 313.303 92.4613 315.412 90.0223 316.747C88.8083 317.412 87.3693 317.882 86.0493 317.468C83.8753 316.788 83.0463 313.942 83.7573 311.778C84.4693 309.615 86.2443 308.001 87.9493 306.492C81.7723 306.708 75.6593 308.562 70.4023 311.814C66.2863 314.359 62.3823 318.533 62.9293 323.342C66.3313 320.603 70.3263 318.604 74.5583 317.522C75.4563 317.293 76.5833 317.177 77.1453 317.914C77.5703 318.472 77.4483 319.275 77.1753 319.922C75.8223 323.13 71.8443 324.206 69.3773 326.663C69.0533 326.985 68.7423 327.358 68.6643 327.808C68.5103 328.691 69.3513 329.496 70.2353 329.643C71.1193 329.79 72.0063 329.469 72.8443 329.152C74.5853 328.496 76.3263 327.839 78.0673 327.182C79.3283 326.707 80.8243 326.253 81.9453 327C83.1043 327.773 83.2133 329.531 82.5583 330.761C81.9033 331.991 80.7003 332.815 79.5423 333.591C76.7523 335.461 73.9623 337.331 71.1723 339.201C68.8363 340.767 66.2193 342.878 66.4413 345.682C66.6503 348.32 69.5533 350.114 72.1943 349.944C74.8363 349.775 77.1613 348.159 79.1113 346.369C81.0603 344.578 82.8203 342.534 85.0843 341.162C86.5623 340.267 88.6703 339.77 89.8703 341.013C90.7973 341.972 90.7083 343.516 90.3603 344.804C89.3573 348.517 86.6453 351.732 83.1533 353.346C85.9943 354.001 88.9573 354.125 91.8423 353.708C93.4883 353.471 95.1913 353.014 96.3813 351.853C97.5713 350.692 98.0323 348.649 97.0003 347.345C95.4603 345.401 95.5213 342.556 96.5053 340.28C97.4893 338.003 99.2463 336.165 100.967 334.379C100.474 333.363 99.0353 333.294 97.9583 333.633ZM111.109 338.046C112.656 334.47 112.712 330.426 112.32 326.55C111.887 322.263 110.393 317.361 106.354 315.859C100.436 318.316 95.8693 323.796 94.5203 330.059C94.4073 330.586 94.3183 331.152 94.5253 331.649C94.7323 332.146 95.3473 332.508 95.8243 332.258C97.4603 331.401 99.4733 330.915 101.136 331.718C102.799 332.521 103.609 335.028 102.262 336.292C100.774 337.689 99.2463 339.142 98.4433 341.018C97.6403 342.894 97.7563 345.323 99.2683 346.695C100.403 347.725 100.406 349.748 99.2733 350.782C102.494 349.841 104.79 347.072 106.878 344.445C108.475 342.438 110.09 340.4 111.109 338.046ZM74.0283 319.555C70.6783 320.944 67.4253 322.571 64.3043 324.418C63.5613 324.857 62.8113 325.322 62.2683 325.993C61.5353 326.898 61.2563 328.079 61.0303 329.222C60.2983 332.914 59.9213 336.888 61.4713 340.317C61.9663 341.412 62.6423 342.413 63.3153 343.408C63.5143 343.701 63.7393 344.015 64.0803 344.114C64.4203 344.213 64.8703 343.939 64.7903 343.593C64.5443 342.529 65.3503 341.527 66.1453 340.778C70.8053 336.392 77.0823 333.875 81.2733 329.038C80.6373 328.285 79.4313 328.639 78.5253 329.026C76.3663 329.948 74.1403 330.712 71.8713 331.311C70.7003 331.62 69.3953 331.871 68.3273 331.301C66.7633 330.468 66.5093 328.187 67.3353 326.619C68.1613 325.051 69.7313 324.039 71.2453 323.119C72.7593 322.198 74.3483 321.238 75.2573 319.716C75.0913 319.283 74.4573 319.377 74.0283 319.555ZM85.4963 348.936C86.9763 347.746 88.5763 346.343 88.7383 344.451C88.8223 343.461 88.1883 342.251 87.1993 342.345C86.8953 342.374 86.6173 342.525 86.3553 342.681C82.0493 345.254 79.2163 350.284 74.3583 351.534C75.7313 352.148 77.1623 352.632 78.6263 352.975C79.0623 353.078 79.5163 353.168 79.9543 353.077C80.4653 352.972 80.8923 352.635 81.2983 352.309C82.6973 351.185 84.0963 350.06 85.4963 348.936ZM89.5003 307.815C88.5423 308.875 87.5843 309.934 86.6263 310.994C85.8673 311.834 85.0523 312.941 85.4753 313.991C85.7863 314.764 86.7053 315.155 87.5363 315.091C88.3683 315.026 89.1253 314.601 89.8223 314.144C92.3063 312.514 94.5423 310.294 97.4413 309.643C95.4313 308.91 93.4213 308.178 91.4113 307.445C90.9933 307.293 90.5263 307.14 90.1143 307.31C89.8673 307.412 89.6793 307.617 89.5003 307.815Z" fill="#2218A7"/>
<path fill-rule="evenodd" clip-rule="evenodd" d="M126.903 181.227C126.652 186.249 122.778 191.687 117.785 191.093C115.532 188.487 113.768 185.252 112.025 182.055C108.677 175.915 105.406 169.915 98.8883 168.776C92.4863 167.657 86.5243 172.365 82.5373 177.497C76.7633 184.93 73.0313 193.934 71.8553 203.272C71.1633 208.762 73.4153 216.376 78.9153 215.772C85.1983 215.081 89.6663 220.024 94.2113 225.05C98.4173 229.702 102.689 234.427 108.525 234.826C115.474 235.3 121.151 239.464 126.897 243.678C130.734 246.493 134.603 249.33 138.903 251.106C146.991 254.448 156.319 253.802 164.575 250.9C172.832 247.997 180.18 242.999 187.134 237.686L187.499 237.407C191.295 234.504 195.269 231.464 199.99 230.825C224.128 227.555 246.578 213.397 259.931 193.024C278.862 208.157 305.33 213.329 328.565 206.436C332.507 205.266 336.475 203.698 339.399 200.806C342.322 197.915 343.98 193.424 342.543 189.571C340.972 185.358 336.275 183.102 331.811 182.559C329.364 182.262 326.898 182.35 324.43 182.438H324.429C322.395 182.51 320.359 182.583 318.332 182.439C306.059 181.572 295.839 173.107 286.546 165.043C300.011 160.913 310.928 150.539 318.137 138.439C325.345 126.34 329.209 112.557 332.144 98.7821C333.688 91.5331 334.835 83.3671 330.694 77.2201C328.84 74.4691 326.122 72.4581 323.414 70.4531C320.364 68.1961 317.327 65.9481 315.549 62.6631C312.129 56.3441 305.463 52.5971 299.141 49.1831C282.595 40.2501 263.589 31.0551 245.757 37.0211C238.811 39.3451 232.811 43.7981 226.961 48.2051C217.246 55.5241 206.839 64.1091 204.989 76.1301C189.094 69.0191 168.529 74.6981 158.536 88.9601C156.251 92.2221 154.496 95.8191 152.743 99.4121C150.679 103.643 148.618 107.869 145.696 111.536C133.959 106.189 122 101.328 109.86 96.9701C104.478 95.0381 98.0483 93.3311 93.4103 96.6761C89.6913 99.3571 88.5503 104.621 89.6423 109.074C90.7333 113.527 93.6483 117.302 96.7733 120.657C103.554 127.935 111.698 133.939 120.657 138.261C120.946 138.4 121.237 138.539 121.529 138.678C124.335 140.015 127.218 141.388 129.086 143.841C131.149 146.55 131.277 151.081 128.385 152.878C124.115 155.533 123.329 161.488 124.204 166.44C124.503 168.132 124.942 169.807 125.381 171.481C126.225 174.705 127.068 177.921 126.903 181.227ZM242.841 207.704C232.08 219.003 216.938 225.613 201.456 227.545C185.973 229.478 170.163 226.965 155.372 221.995C159.351 221.992 162.228 216.784 160.111 213.415C151.96 222.917 139.533 227.367 127.692 231.431C116.994 235.102 104.207 232.436 96.3493 224.301C88.4913 216.167 86.3653 202.819 91.8913 192.951C94.2933 188.661 98.3673 184.928 103.265 184.507C108.164 184.086 113.438 188.147 112.984 193.042C110.258 192.569 107.39 194.884 107.277 197.648C117.822 196.512 127.735 190.47 133.576 181.618C135.593 178.563 137.125 175.235 138.658 171.905C139.688 169.668 140.718 167.431 141.896 165.273C144.828 159.903 149.037 154.784 154.871 152.939C159.553 151.458 164.614 152.28 169.453 153.114L190.95 156.821C192.559 155.432 189.954 153.206 187.873 152.771C181.154 151.367 174.342 150.502 167.529 149.637C161.211 148.835 154.893 148.032 148.648 146.8C135.669 144.24 122.625 139.556 113.178 130.295C119.586 126.609 124.461 120.345 126.461 113.228C126.866 111.788 125.902 109.423 124.733 110.356C123.397 114.976 121.949 119.794 118.602 123.248C115.255 126.701 109.38 128.218 105.592 125.255C100.674 121.409 95.5043 117.214 93.5593 111.281C91.6143 105.349 94.6913 97.3811 100.892 96.6541C103.675 96.3271 106.396 97.4771 108.962 98.6021L134.855 109.953C142.562 113.331 150.383 116.743 158.707 117.968C164.552 118.829 170.497 118.587 176.4 118.344L193.134 117.654C193.818 117.625 194.52 117.593 195.15 117.325C196.831 116.607 197.402 114.554 197.773 112.764C202.263 91.0941 208.297 68.2261 224.62 53.2831C231.923 46.5961 241.022 41.8881 250.699 39.7881C260.238 37.7171 270.763 38.3261 278.975 43.6021C265.199 44.6161 251.821 50.4251 241.676 59.8001C237.413 55.2501 229.479 58.9691 226.079 64.1961C220.809 72.2981 220.905 83.5531 226.312 91.5641C230.864 98.3081 232.552 106.354 234.244 114.419C235.799 121.831 237.357 129.258 241.145 135.705C247.136 145.904 258.294 152.451 269.948 154.48C281.601 156.51 293.682 154.39 304.757 150.236C292.362 162.601 272.559 166.877 256.166 160.73C254.971 160.282 253.783 159.782 252.593 159.281H252.592C248.825 157.695 245.045 156.103 241.005 156.15C243.372 158.657 246.395 160.538 249.689 161.555C245.891 167.935 241.906 174.204 237.741 180.351C237.208 181.137 236.601 181.975 235.69 182.241C234.674 182.537 233.613 182.031 232.687 181.519C225.029 177.286 218.166 171.623 212.556 164.908L201.334 178.559C207.093 185.598 213.826 191.84 221.28 197.049C211.358 209.307 196.326 217.291 180.614 218.647C196.878 219.476 213.343 211.847 223.226 198.905C229.483 202.418 236.057 205.367 242.841 207.704ZM294.274 87.6741C297.868 83.7561 299.199 78.1581 298.892 72.8501C298.585 67.5421 296.8 62.4371 294.824 57.5011C299.972 56.8911 305.202 58.8331 309.302 62.0041C313.403 65.1761 316.483 69.4911 319.009 74.0171C322.072 79.5051 324.42 85.4381 325.439 91.6391C327.838 106.239 322.716 121.126 315.425 134.001C314.009 136.501 312.486 138.984 310.419 140.98C308.338 142.99 305.778 144.435 303.155 145.654C292.329 150.684 279.875 152.135 268.182 149.73C275.647 143.515 280.918 134.953 284.275 125.839C287.633 116.725 289.169 107.038 290.054 97.3661L290.059 97.3121C290.282 94.8731 290.517 92.3101 291.907 90.2951C292.367 89.6291 292.936 89.0511 293.506 88.4721C293.766 88.2091 294.025 87.9461 294.274 87.6741ZM280.766 127.96C277.545 135.494 272.555 142.412 265.79 147.036C264.998 147.577 264.148 148.1 263.194 148.211C262.353 148.309 261.51 148.077 260.703 147.822C254.951 146.007 249.517 142.789 245.827 138.018C244.488 136.287 243.395 134.378 242.42 132.418C235.318 118.148 234.622 100.835 240.556 86.0411C240.84 85.3341 241.245 84.5411 241.992 84.3931C242.958 84.2011 243.699 85.1891 244.242 86.0111C248.674 92.7281 256.963 96.1281 265.003 96.4811C273.044 96.8331 280.952 94.5481 288.576 91.9711C287.187 95.3681 286.833 99.0701 286.483 102.737L286.482 102.742C286.438 103.202 286.394 103.661 286.348 104.12C285.531 112.272 283.987 120.426 280.766 127.96ZM279.129 57.9681C283.243 57.0331 288.044 56.7751 291.187 59.5901C292.202 60.4991 292.957 61.6641 293.577 62.8771C297.471 70.4861 295.946 80.5081 289.965 86.6141C283.051 93.6731 272.108 94.8371 262.263 93.9991C258.73 93.6981 255.097 93.1551 252.081 91.2911C248.179 88.8781 245.868 84.6281 243.731 80.5691C253.218 69.9681 265.257 61.1211 279.129 57.9681ZM312.403 185.935C311.112 189.194 309.809 192.498 309.386 195.978C308.964 199.457 309.514 203.192 311.63 205.986C294.068 206.958 276.22 201.542 262.159 190.975C266.693 184.558 270.274 177.469 272.748 170.011C273.725 167.065 277.455 165.836 280.482 166.518C283.27 167.146 285.611 168.934 287.893 170.679L288.173 170.892C288.276 170.971 288.379 171.05 288.483 171.128C295.958 176.803 304.197 181.38 312.403 185.935ZM189.678 230.442C186.908 233.56 183.598 236.149 180.216 238.59C173.158 243.687 165.461 248.319 156.883 249.799C144.31 251.969 130.727 246.546 123.106 236.315L150.528 226.085C151.184 225.841 151.865 225.592 152.564 225.631C152.959 225.654 153.34 225.767 153.721 225.881C153.974 225.956 154.228 226.032 154.487 226.081C155.368 226.248 156.256 226.101 157.148 225.955C157.703 225.863 158.259 225.771 158.816 225.755C160.869 225.693 162.755 226.631 164.622 227.559C165.096 227.795 165.568 228.03 166.042 228.248C173.313 231.592 181.697 231.051 189.678 230.442ZM150.084 113.113C149.89 112.681 150.094 112.183 150.298 111.756C155.914 99.9951 163.343 89.1011 172.242 79.5791C178.502 88.2701 182.668 98.4591 184.291 109.046C184.616 111.162 184.265 114.089 182.141 114.354C171.957 115.623 161.595 115.451 151.459 113.843C150.923 113.758 150.305 113.608 150.084 113.113ZM188.439 112.387C186.342 100.86 181.989 89.7471 175.698 79.8621C181.023 77.0591 187.317 77.0131 193.334 77.0321C197.134 77.0441 201.282 77.1781 204.178 79.6391L196.666 101.804C195.391 105.567 194.1 109.435 194.26 113.405L189.512 113.481C189.343 113.484 189.168 113.486 189.012 113.421C188.632 113.262 188.512 112.793 188.439 112.387ZM249.537 169.111C250.799 166.965 252 164.673 252.128 162.187C257.809 164.743 264.066 166.009 270.294 165.864C271.271 165.841 271.236 167.348 270.836 168.24C269.623 170.939 268.409 173.641 267.005 176.246C265.565 178.919 263.93 181.483 262.297 184.043L258.381 190.18C257.846 191.02 257.292 191.879 256.496 192.477C254.359 194.084 251.308 193.311 248.869 192.216C244.824 190.398 241.1 187.867 237.922 184.774C242.336 179.986 246.237 174.725 249.537 169.111ZM102.621 174.414C104.504 176.312 105.734 178.744 106.933 181.133L101.286 181.939C99.4043 182.207 97.4753 182.491 95.8123 183.411C94.1943 184.306 92.9463 185.741 91.8483 187.229C87.2553 193.451 84.7103 201.159 84.6943 208.893C84.6883 211.686 81.3863 213.679 78.6843 212.97C75.9823 212.262 74.1473 209.578 73.6803 206.824C73.2123 204.07 73.8703 201.254 74.6953 198.586C77.5993 189.194 82.7923 180.325 90.4763 174.194C91.9443 173.022 93.5663 171.926 95.4213 171.629C98.0603 171.208 100.739 172.516 102.621 174.414ZM339.764 190.135C340.418 190.974 340.901 191.996 340.872 193.059C340.834 194.433 339.963 195.638 339.026 196.642C333.574 202.484 325.196 204.473 317.261 205.411C316.738 205.473 316.19 205.528 315.699 205.336C315.296 205.179 314.973 204.868 314.685 204.545C312.771 202.392 312.012 199.382 312.167 196.505C312.323 193.628 313.316 190.858 314.552 188.255C314.812 187.707 315.114 187.132 315.644 186.838C316.068 186.603 316.573 186.585 317.057 186.572L326.661 186.32C329.025 186.258 331.415 186.199 333.73 186.686C336.044 187.174 338.311 188.268 339.764 190.135ZM232.737 99.3961C228.824 92.1461 225.896 84.3641 224.06 76.3321L225.641 72.1101C227.597 68.3231 230.062 64.8011 232.95 61.6671C234.126 60.3901 236.164 60.2491 237.787 60.8641C239.41 61.4791 240.716 62.7021 241.976 63.8961L247.646 69.2671C247.814 69.4271 247.991 69.5991 248.047 69.8251C248.153 70.2491 247.802 70.6371 247.485 70.9391C244.83 73.4631 242.471 76.3091 240.579 79.4471C237.72 84.1891 235.975 89.5031 234.252 94.7661L232.737 99.3961ZM247.228 58.6751C258.772 52.4921 271.398 46.6741 284.42 48.0651C291.227 48.7921 297.74 51.5011 303.41 55.3371C287.166 51.1621 269.059 55.0131 255.921 65.4391C253.89 67.0501 250.843 68.8001 249.035 66.9421C248.571 66.4661 248.268 65.7971 247.972 65.1461C247.498 64.1031 247.045 63.1041 245.983 63.0071C244.971 62.9131 244.52 61.5401 244.95 60.6181C245.379 59.6971 246.331 59.1551 247.228 58.6751ZM215.515 171.761C217.793 173.95 220.302 175.883 222.805 177.811L232.92 185.601C229.805 188.345 226.758 191.166 223.781 194.06C216.695 189.86 210.371 184.381 205.204 177.966C208.032 175.02 210.747 171.966 213.341 168.811C213.748 169.975 214.625 170.906 215.515 171.761ZM150.486 150.691C145.16 154.852 139.655 159.231 136.726 165.321C136.153 166.511 135.68 167.763 135.208 169.013V169.014C134.205 171.671 133.205 174.32 131.259 176.343C130.396 176.09 130.057 175.074 129.847 174.2L127.821 165.771C127.547 164.633 127.272 163.465 127.427 162.305C127.582 161.151 128.151 160.1 128.71 159.079L134.655 148.213C134.788 147.971 134.925 147.723 135.138 147.546C135.664 147.109 136.442 147.249 137.106 147.411L150.486 150.691ZM236.999 188.017C240.63 191.751 245.144 194.621 250.065 196.326C250.986 195.46 252.765 195.938 253.128 197.149C251.434 199.346 249.575 201.416 247.571 203.334C246.676 204.191 245.242 204.01 244.035 203.733C238.136 202.379 232.455 200.085 227.271 196.963C226.924 196.754 226.534 196.457 226.568 196.054C226.591 195.783 226.805 195.572 227.005 195.387L234.284 188.683C235.047 187.98 236.275 187.273 236.999 188.017ZM329.933 94.3661C329.865 95.1881 329.749 96.1051 329.107 96.6211C329.102 90.1691 327.502 83.7231 324.489 78.0171C323.942 76.9821 323.35 75.9701 322.69 75.0031C322.606 74.8791 322.519 74.7551 322.433 74.6301C321.768 73.6701 321.088 72.6881 320.926 71.5421L328.726 79.6901C329.444 80.4401 330.182 81.2221 330.521 82.2021C330.848 83.1481 330.77 84.1801 330.688 85.1771L329.933 94.3661ZM320.971 84.0121L319.204 81.7851C317.261 79.3361 314.877 76.6611 311.75 76.6581C309.935 76.6561 308.267 77.5851 306.693 78.4881L304.247 79.8901C303.579 80.2741 302.893 80.6721 302.422 81.2811C301.063 83.0391 302.055 85.6061 303.338 87.4181C304.227 88.6731 305.292 89.8771 306.705 90.4801C308.534 91.2611 310.636 90.9161 312.553 90.3871C315.177 89.6641 317.713 88.6191 320.086 87.2851C320.845 86.8591 321.683 86.2341 321.645 85.3641C321.622 84.8521 321.289 84.4131 320.971 84.0121ZM305.54 85.7301C305.236 85.2461 304.922 84.7291 304.917 84.1581C304.907 83.0411 306.022 82.2911 307.003 81.7561L310.489 79.8541C311.016 79.5671 311.565 79.2731 312.164 79.2321C312.763 79.1921 313.429 79.4801 313.631 80.0461C314.225 81.7151 315.69 83.0471 317.408 83.4801C317.964 83.6201 318.143 84.3901 317.88 84.9001C317.617 85.4101 317.079 85.7081 316.565 85.9631C314.728 86.8751 312.807 87.6181 310.834 88.1811C310.044 88.4071 309.207 88.6041 308.407 88.4141C307.098 88.1031 306.255 86.8691 305.54 85.7301ZM280.74 102.941C277.282 103.344 276.625 109.578 278.23 112.903C278.561 113.587 279.078 114.291 279.831 114.387C281.12 114.55 281.831 112.961 282.117 111.693L282.123 111.664C282.499 109.994 284.177 102.541 280.74 102.941ZM262.908 111.119C263.6 109.506 263.83 107.699 263.566 105.964C263.443 105.158 263.201 104.34 262.662 103.728C262.124 103.116 261.233 102.76 260.466 103.036C259.772 103.286 259.336 103.965 259.007 104.625C257.847 106.958 257.384 109.631 257.694 112.218C257.838 113.421 259.354 114.078 260.505 113.698C261.655 113.317 262.431 112.232 262.908 111.119ZM273.101 107.428C273.637 106.983 274.315 107.791 274.533 108.453C275.248 110.629 275.841 112.846 276.307 115.089C276.601 116.507 276.844 117.979 276.53 119.393C276.088 121.386 274.574 123.007 272.816 124.045C271.059 125.083 269.058 125.62 267.086 126.146C266.565 126.285 265.91 126.384 265.574 125.963C265.288 125.605 265.429 125.045 265.754 124.723C266.073 124.407 266.517 124.261 266.944 124.121L266.97 124.113C270.044 123.103 273.33 121.28 274.045 118.124C274.439 116.388 273.96 114.645 273.479 112.895C273.041 111.301 272.602 109.699 272.818 108.093C272.851 107.849 272.911 107.585 273.101 107.428ZM251.629 100.329C250.82 99.2081 251.468 97.5041 252.642 96.7721C253.816 96.0411 255.3 96.0511 256.672 96.2281C258.31 96.4391 259.921 96.8561 261.456 97.4651C261.782 97.5941 262.134 97.7591 262.278 98.0801C262.544 98.6741 261.855 99.3241 261.204 99.3241C260.68 99.3231 260.205 99.0711 259.735 98.8221C259.622 98.7611 259.508 98.7011 259.395 98.6451C256.832 97.3731 253.435 98.1101 251.629 100.329ZM281.161 99.9431C282.379 99.7401 283.67 100.021 284.693 100.712C285.121 101.001 285.733 100.515 285.736 99.9991C285.738 99.4831 285.354 99.0491 284.948 98.7301C284.075 98.0431 282.987 97.6321 281.877 97.5691C281.161 97.5291 280.369 97.6671 279.908 98.2161C279.447 98.7661 279.586 99.7971 280.277 99.9881C280.524 100.056 280.783 100.01 281.037 99.9651C281.079 99.9571 281.12 99.9501 281.161 99.9431ZM266.049 131.58C266.392 131.387 266.844 131.724 266.895 132.115C266.946 132.505 266.723 132.878 266.469 133.178C265.192 134.685 262.992 135.149 261.049 134.796C259.106 134.443 257.364 133.398 255.725 132.296C254.955 131.778 254.196 131.243 253.449 130.691C252.674 130.119 251.849 129.419 251.757 128.461C251.664 127.503 252.891 126.538 253.592 127.197C255.315 128.819 257.076 130.468 259.219 131.472C261.361 132.476 263.988 132.743 266.049 131.58ZM229.166 139.262C221.989 123.662 218.995 106.162 220.578 89.0641C220.605 88.7711 220.642 88.4591 220.835 88.2381C221.107 87.9261 221.666 87.9391 221.923 88.2631C221.831 97.6691 221.743 107.131 223.279 116.411C224.814 125.691 228.075 134.872 234.027 142.155C234.205 142.372 234.385 142.589 234.566 142.806C235.59 144.034 236.623 145.272 237.203 146.752C233.333 146.678 230.784 142.779 229.166 139.262ZM236.205 68.8191C236.072 68.6761 235.918 68.5491 235.738 68.4721C235.221 68.2481 234.614 68.4771 234.161 68.8131C232.354 70.1501 232.347 73.2771 234.148 74.6221C235.026 73.8741 235.927 73.0961 236.442 72.0641C236.957 71.0311 236.988 69.6671 236.205 68.8191ZM251.78 85.2931C253.727 86.8731 255.946 88.1181 258.309 88.9561C265.936 91.6601 274.507 89.9631 281.866 86.5991C282.991 86.0851 284.426 86.3561 285.285 87.2441C280.56 90.6121 274.77 92.4631 268.967 92.4611C267.688 92.4611 266.41 92.3731 265.135 92.2621C262.527 92.0341 259.899 91.7001 257.445 90.7861C254.991 89.8731 252.7 88.3271 251.311 86.1081L251.78 85.2931ZM334.831 188.081C334.755 188.34 334.964 188.589 335.156 188.78L338.054 191.655C338.37 190.828 338.015 189.865 337.408 189.222C336.8 188.578 335.979 188.186 335.178 187.809C335.021 187.816 334.875 187.93 334.831 188.081Z" fill="#2218A7"/>
<path fill-rule="evenodd" clip-rule="evenodd" d="M525.144 76.2231C528.694 77.4531 532.038 74.2521 535.097 72.0711C539.831 68.6961 546.006 67.4201 551.69 68.6421C552.633 68.8441 553.621 69.1491 554.242 69.8871C554.809 70.5611 554.971 71.4821 555.062 72.3591C555.622 77.7281 554.279 83.2761 551.327 87.7961C549.89 89.9941 548.091 91.9521 546.806 94.2421C545.522 96.5331 544.788 99.3321 545.703 101.793C551.144 116.428 548.88 133.69 539.848 146.427C530.817 159.164 515.277 167.012 499.666 166.72C491.682 166.571 483.86 164.44 476.338 161.76C473.056 160.591 469.448 159.308 466.191 160.543C460.246 162.796 453.988 164.218 447.653 164.756C446.081 164.89 444.439 164.959 442.989 164.338C440.818 163.409 439.507 161.055 439.258 158.707C439.009 156.358 439.658 154.008 440.478 151.793C442.951 145.113 450.63 134.678 455.279 132.274C454.903 124.163 454.944 115.956 456.698 108.027C458.451 100.098 462.031 92.4041 467.902 86.7941C470.327 84.4771 473.102 82.5481 476.009 80.8751C490.711 72.4101 509.114 70.6681 525.144 76.2231ZM502.754 75.5641C491.512 75.8281 480.568 80.3441 471.779 87.3601C469.199 89.4201 466.774 91.7091 464.837 94.3831C463.31 96.4911 462.103 98.8171 461.094 101.216C455.108 115.453 456.474 132.559 464.645 145.666C464.823 145.951 465.027 146.254 465.345 146.365C465.737 146.502 466.16 146.303 466.526 146.107C492.188 132.432 515.029 113.492 533.219 90.8051C533.652 90.2651 534.108 89.6381 534.014 88.9521C533.944 88.4371 533.577 88.0191 533.218 87.6431C525.456 79.5051 513.997 75.3011 502.754 75.5641ZM518.472 160.556C530.661 154.834 539.918 143.526 543.877 130.656C544.774 127.742 545.418 124.73 545.481 121.681C545.535 119.118 545.177 116.565 544.82 114.026C544.303 110.345 543.786 106.664 543.268 102.983C543.131 102.007 542.191 100.718 541.504 101.425C522.433 121.051 501.609 138.972 479.36 154.905C478.62 155.436 477.805 156.091 477.765 157.001C477.719 158.054 478.724 158.818 479.637 159.344C491.301 166.071 506.284 166.278 518.472 160.556ZM443.29 159.058C444.177 160.48 446.099 160.771 447.774 160.817C456.564 161.061 465.259 158.485 473.123 154.551C480.987 150.618 488.105 145.356 495.021 139.928C504.247 132.687 513.197 125.099 521.919 117.259C532.721 107.55 543.336 97.2521 550.428 84.5771C551.8 82.1261 553.066 79.4371 552.851 76.6361C552.637 73.8351 550.402 71.0061 547.595 71.1161C541.637 71.3481 535.78 73.6391 531.245 77.5091C530.343 78.2791 530.981 79.9181 532.091 80.3341C533.201 80.7511 534.438 80.3371 535.523 79.8581C536.607 79.3791 537.737 78.8191 538.915 78.9501C540.715 79.1511 541.994 80.9941 542.101 82.8021C542.208 84.6101 541.409 86.3481 540.467 87.8951C538.723 90.7581 536.446 93.2531 534.145 95.6911C513.692 117.36 490.097 136.06 464.33 151.023C462.009 152.371 459.661 153.693 457.164 154.675C455.854 155.19 454.352 155.603 453.074 155.014C450.977 154.049 450.809 151.105 451.438 148.885C452.383 145.551 454.423 142.536 457.168 140.421C456.648 138.956 456.128 137.492 455.608 136.027C448.833 140.355 444.078 147.716 442.919 155.672C442.752 156.82 442.676 158.073 443.29 159.058ZM462.555 149.006C462.603 148.855 462.515 148.698 462.43 148.563C461.555 147.173 460.68 145.782 459.805 144.391C459.409 143.762 458.643 143.05 458.049 143.497C455.909 145.108 454.378 147.508 453.817 150.127C453.707 150.644 453.642 151.221 453.924 151.668C454.447 152.501 455.698 152.315 456.624 151.984C458.597 151.277 460.498 150.367 462.287 149.275C462.398 149.207 462.516 149.129 462.555 149.006ZM538.696 82.8061C538.608 82.4451 538.178 82.2881 537.806 82.2721C536.679 82.2221 535.5 83.1501 535.572 84.2761C535.643 85.4031 537.318 86.1121 538.017 85.2261C538.229 84.9591 538.318 84.6181 538.402 84.2881C538.485 83.9601 538.569 83.6331 538.652 83.3061C538.694 83.1421 538.736 82.9701 538.696 82.8061Z" fill="#2218A7"/>
</svg>
