<svg width="40" height="42" viewBox="0 0 40 42" fill="none" xmlns="http://www.w3.org/2000/svg">
<g id="ph:x-logo-bold">
<rect width="40" height="42" rx="20" fill="#E5C300"/>
<path id="Vector" d="M34.0812 34.3809L24.55 18.6638L33.8812 7.88648C34.2087 7.49895 34.3774 6.99151 34.3509 6.47421C34.3244 5.9569 34.1048 5.47141 33.7396 5.12299C33.3745 4.77457 32.8933 4.59131 32.4003 4.61293C31.9074 4.63456 31.4424 4.85933 31.1062 5.23852L22.4703 15.2201L16.5812 5.50594C16.412 5.22653 16.1784 4.99646 15.902 4.83702C15.6256 4.67757 15.3153 4.5939 15 4.59375H7.49998C7.16411 4.59391 6.83444 4.68881 6.54544 4.86851C6.25643 5.04821 6.01871 5.30613 5.85711 5.6153C5.69552 5.92447 5.61598 6.27355 5.62682 6.62603C5.63766 6.97852 5.73848 7.32148 5.91873 7.61906L15.45 23.3363L6.11248 34.1135C5.94342 34.3042 5.81208 34.5282 5.72609 34.7726C5.64009 35.017 5.60114 35.2769 5.6115 35.5372C5.62186 35.7975 5.68131 36.053 5.78643 36.289C5.89154 36.525 6.04021 36.7367 6.22384 36.9119C6.40746 37.0872 6.62237 37.2224 6.85613 37.3097C7.08988 37.3971 7.33783 37.4349 7.58559 37.4209C7.83335 37.4069 8.076 37.3414 8.29948 37.2282C8.52296 37.115 8.72282 36.9564 8.88748 36.7615L17.5297 26.7799L23.4187 36.4941C23.588 36.7735 23.8216 37.0035 24.098 37.163C24.3744 37.3224 24.6846 37.4061 25 37.4062H32.5C32.8359 37.4061 33.1655 37.3112 33.4545 37.1315C33.7435 36.9518 33.9813 36.6939 34.1428 36.3847C34.3044 36.0755 34.384 35.7265 34.3731 35.374C34.3623 35.0215 34.2615 34.6785 34.0812 34.3809ZM26.0297 33.4688L10.9156 8.53125H13.9703L29.0844 33.4688H26.0297Z" fill="black"/>
</g>
</svg>
